<?xml version="1.0" encoding="UTF-8" standalone="no"?>
<!DOCTYPE svg PUBLIC "-//W3C//DTD SVG 1.1//EN"
 "http://www.w3.org/Graphics/SVG/1.1/DTD/svg11.dtd">
<!-- Generated by graphviz version 2.40.1 (20161225.0304)
 -->
<!-- Title: dependencies Pages: 1 -->
<svg width="662pt" height="284pt"
 viewBox="0.00 0.00 662.00 284.00" xmlns="http://www.w3.org/2000/svg" xmlns:xlink="http://www.w3.org/1999/xlink">
<g id="graph0" class="graph" transform="scale(1 1) rotate(0) translate(4 280)">
<title>dependencies</title>
<polygon fill="#ffffff" stroke="transparent" points="-4,4 -4,-280 658,-280 658,4 -4,4"/>
<text text-anchor="start" x="306.0091" y="-42.4" font-family="sans-serif" font-weight="bold" font-size="14.00" fill="#000000">Legend</text>
<polygon fill="#ffffb3" stroke="transparent" points="93,-10 93,-30 113,-30 113,-10 93,-10"/>
<text text-anchor="start" x="116.629" y="-15.4" font-family="sans-serif" font-size="14.00" fill="#000000"> &#160;Declarations</text>
<polygon fill="#8dd3c7" stroke="transparent" points="206,-10 206,-30 226,-30 226,-10 206,-10"/>
<text text-anchor="start" x="229.7251" y="-15.4" font-family="sans-serif" font-size="14.00" fill="#000000"> &#160;Module</text>
<polygon fill="#80b1d3" stroke="transparent" points="292,-10 292,-30 312,-30 312,-10 292,-10"/>
<text text-anchor="start" x="315.7812" y="-15.4" font-family="sans-serif" font-size="14.00" fill="#000000"> &#160;Bootstrap</text>
<polygon fill="#fdb462" stroke="transparent" points="389,-10 389,-30 409,-30 409,-10 389,-10"/>
<text text-anchor="start" x="412.6732" y="-15.4" font-family="sans-serif" font-size="14.00" fill="#000000"> &#160;Providers</text>
<polygon fill="#fb8072" stroke="transparent" points="485,-10 485,-30 505,-30 505,-10 485,-10"/>
<text text-anchor="start" x="508.7258" y="-15.4" font-family="sans-serif" font-size="14.00" fill="#000000"> &#160;Exports</text>
<g id="clust1" class="cluster">
<title>cluster_UiUtilitiesModule</title>
<polygon fill="none" stroke="#000000" stroke-dasharray="1,5" points="8,-70 8,-268 646,-268 646,-70 8,-70"/>
</g>
<g id="clust2" class="cluster">
<title>cluster_UiUtilitiesModule_declarations</title>
<polygon fill="none" stroke="#000000" points="23,-78 23,-130 633,-130 633,-78 23,-78"/>
</g>
<g id="clust8" class="cluster">
<title>cluster_UiUtilitiesModule_exports</title>
<polygon fill="none" stroke="#000000" points="16,-208 16,-260 638,-260 638,-208 16,-208"/>
</g>
<!-- UiGoToTopDirective -->
<g id="node1" class="node">
<title>UiGoToTopDirective</title>
<polygon fill="#ffffb3" stroke="#000000" points="624.7921,-122 487.2079,-122 487.2079,-86 624.7921,-86 624.7921,-122"/>
<text text-anchor="middle" x="556" y="-99.8" font-family="Times,serif" font-size="14.00" fill="#000000">UiGoToTopDirective</text>
</g>
<!-- UiUtilitiesModule -->
<g id="node5" class="node">
<title>UiUtilitiesModule</title>
<polygon fill="#8dd3c7" stroke="#000000" points="302.1569,-187 299.1569,-191 278.1569,-191 275.1569,-187 183.8431,-187 183.8431,-151 302.1569,-151 302.1569,-187"/>
<text text-anchor="middle" x="243" y="-164.8" font-family="Times,serif" font-size="14.00" fill="#000000">UiUtilitiesModule</text>
</g>
<!-- UiGoToTopDirective&#45;&gt;UiUtilitiesModule -->
<g id="edge1" class="edge">
<title>UiGoToTopDirective&#45;&gt;UiUtilitiesModule</title>
<path fill="none" stroke="#000000" d="M579.632,-122.0225C579.632,-139.3734 579.632,-163 579.632,-163 579.632,-163 312.4081,-163 312.4081,-163"/>
<polygon fill="#000000" stroke="#000000" points="312.4082,-159.5001 302.4081,-163 312.4081,-166.5001 312.4082,-159.5001"/>
</g>
<!-- UiHeaderScrollDirective -->
<g id="node2" class="node">
<title>UiHeaderScrollDirective</title>
<polygon fill="#ffffb3" stroke="#000000" points="468.93,-122 313.07,-122 313.07,-86 468.93,-86 468.93,-122"/>
<text text-anchor="middle" x="391" y="-99.8" font-family="Times,serif" font-size="14.00" fill="#000000">UiHeaderScrollDirective</text>
</g>
<!-- UiHeaderScrollDirective&#45;&gt;UiUtilitiesModule -->
<g id="edge2" class="edge">
<title>UiHeaderScrollDirective&#45;&gt;UiUtilitiesModule</title>
<path fill="none" stroke="#000000" d="M312.7986,-104C304.3787,-104 298.7945,-104 298.7945,-104 298.7945,-104 298.7945,-140.8939 298.7945,-140.8939"/>
<polygon fill="#000000" stroke="#000000" points="295.2946,-140.8938 298.7945,-150.8939 302.2946,-140.8939 295.2946,-140.8938"/>
</g>
<!-- UiRoleDirective -->
<g id="node3" class="node">
<title>UiRoleDirective</title>
<polygon fill="#ffffb3" stroke="#000000" points="295.0228,-122 186.9772,-122 186.9772,-86 295.0228,-86 295.0228,-122"/>
<text text-anchor="middle" x="241" y="-99.8" font-family="Times,serif" font-size="14.00" fill="#000000">UiRoleDirective</text>
</g>
<!-- UiRoleDirective&#45;&gt;UiUtilitiesModule -->
<g id="edge3" class="edge">
<title>UiRoleDirective&#45;&gt;UiUtilitiesModule</title>
<path fill="none" stroke="#000000" d="M241,-122.1061C241,-122.1061 241,-140.991 241,-140.991"/>
<polygon fill="#000000" stroke="#000000" points="237.5001,-140.9909 241,-150.991 244.5001,-140.991 237.5001,-140.9909"/>
</g>
<!-- UiSubscribeDirective -->
<g id="node4" class="node">
<title>UiSubscribeDirective</title>
<polygon fill="#ffffb3" stroke="#000000" points="168.7879,-122 31.2121,-122 31.2121,-86 168.7879,-86 168.7879,-122"/>
<text text-anchor="middle" x="100" y="-99.8" font-family="Times,serif" font-size="14.00" fill="#000000">UiSubscribeDirective</text>
</g>
<!-- UiSubscribeDirective&#45;&gt;UiUtilitiesModule -->
<g id="edge4" class="edge">
<title>UiSubscribeDirective&#45;&gt;UiUtilitiesModule</title>
<path fill="none" stroke="#000000" d="M120.0479,-122.0225C120.0479,-139.3734 120.0479,-163 120.0479,-163 120.0479,-163 173.6848,-163 173.6848,-163"/>
<polygon fill="#000000" stroke="#000000" points="173.6849,-166.5001 183.6848,-163 173.6848,-159.5001 173.6849,-166.5001"/>
</g>
<!-- UiGoToTopDirective  -->
<g id="node6" class="node">
<title>UiGoToTopDirective </title>
<polygon fill="#fb8072" stroke="#000000" points="630.292,-252 489.708,-252 489.708,-216 630.292,-216 630.292,-252"/>
<text text-anchor="middle" x="560" y="-229.8" font-family="Times,serif" font-size="14.00" fill="#000000">UiGoToTopDirective </text>
</g>
<!-- UiUtilitiesModule&#45;&gt;UiGoToTopDirective  -->
<g id="edge5" class="edge">
<title>UiUtilitiesModule&#45;&gt;UiGoToTopDirective </title>
<path fill="none" stroke="#000000" stroke-dasharray="5,2" d="M302.3648,-175C387.6296,-175 534.618,-175 534.618,-175 534.618,-175 534.618,-205.9775 534.618,-205.9775"/>
<polygon fill="#000000" stroke="#000000" points="531.1181,-205.9774 534.618,-215.9775 538.1181,-205.9775 531.1181,-205.9774"/>
</g>
<!-- UiHeaderScrollDirective  -->
<g id="node7" class="node">
<title>UiHeaderScrollDirective </title>
<polygon fill="#fb8072" stroke="#000000" points="471.9306,-252 312.0694,-252 312.0694,-216 471.9306,-216 471.9306,-252"/>
<text text-anchor="middle" x="392" y="-229.8" font-family="Times,serif" font-size="14.00" fill="#000000">UiHeaderScrollDirective </text>
</g>
<!-- UiUtilitiesModule&#45;&gt;UiHeaderScrollDirective  -->
<g id="edge6" class="edge">
<title>UiUtilitiesModule&#45;&gt;UiHeaderScrollDirective </title>
<path fill="none" stroke="#000000" stroke-dasharray="5,2" d="M298.1695,-187.1061C298.1695,-206.3391 298.1695,-234 298.1695,-234 298.1695,-234 302.0146,-234 302.0146,-234"/>
<polygon fill="#000000" stroke="#000000" points="302.0146,-237.5001 312.0146,-234 302.0145,-230.5001 302.0146,-237.5001"/>
</g>
<!-- UiRoleDirective  -->
<g id="node8" class="node">
<title>UiRoleDirective </title>
<polygon fill="#fb8072" stroke="#000000" points="294.0218,-252 181.9782,-252 181.9782,-216 294.0218,-216 294.0218,-252"/>
<text text-anchor="middle" x="238" y="-229.8" font-family="Times,serif" font-size="14.00" fill="#000000">UiRoleDirective </text>
</g>
<!-- UiUtilitiesModule&#45;&gt;UiRoleDirective  -->
<g id="edge7" class="edge">
<title>UiUtilitiesModule&#45;&gt;UiRoleDirective </title>
<path fill="none" stroke="#000000" stroke-dasharray="5,2" d="M238.8414,-187.1061C238.8414,-187.1061 238.8414,-205.991 238.8414,-205.991"/>
<polygon fill="#000000" stroke="#000000" points="235.3414,-205.9909 238.8414,-215.991 242.3414,-205.991 235.3414,-205.9909"/>
</g>
<!-- UiSubscribeDirective  -->
<g id="node9" class="node">
<title>UiSubscribeDirective </title>
<polygon fill="#fb8072" stroke="#000000" points="164.2878,-252 23.7122,-252 23.7122,-216 164.2878,-216 164.2878,-252"/>
<text text-anchor="middle" x="94" y="-229.8" font-family="Times,serif" font-size="14.00" fill="#000000">UiSubscribeDirective </text>
</g>
<!-- UiUtilitiesModule&#45;&gt;UiSubscribeDirective  -->
<g id="edge8" class="edge">
<title>UiUtilitiesModule&#45;&gt;UiSubscribeDirective </title>
<path fill="none" stroke="#000000" stroke-dasharray="5,2" d="M183.5459,-175C135.4597,-175 75.7021,-175 75.7021,-175 75.7021,-175 75.7021,-205.9775 75.7021,-205.9775"/>
<polygon fill="#000000" stroke="#000000" points="72.2022,-205.9774 75.7021,-215.9775 79.2022,-205.9775 72.2022,-205.9774"/>
</g>
</g>
</svg>
