<?xml version="1.0" encoding="UTF-8" standalone="no"?>
<!DOCTYPE svg PUBLIC "-//W3C//DTD SVG 1.1//EN"
 "http://www.w3.org/Graphics/SVG/1.1/DTD/svg11.dtd">
<!-- Generated by graphviz version 2.40.1 (20161225.0304)
 -->
<!-- Title: dependencies Pages: 1 -->
<svg width="514pt" height="284pt"
 viewBox="0.00 0.00 514.00 284.00" xmlns="http://www.w3.org/2000/svg" xmlns:xlink="http://www.w3.org/1999/xlink">
<g id="graph0" class="graph" transform="scale(1 1) rotate(0) translate(4 280)">
<title>dependencies</title>
<polygon fill="#ffffff" stroke="transparent" points="-4,4 -4,-280 510,-280 510,4 -4,4"/>
<text text-anchor="start" x="232.0091" y="-42.4" font-family="sans-serif" font-weight="bold" font-size="14.00" fill="#000000">Legend</text>
<polygon fill="#ffffb3" stroke="transparent" points="19,-10 19,-30 39,-30 39,-10 19,-10"/>
<text text-anchor="start" x="42.629" y="-15.4" font-family="sans-serif" font-size="14.00" fill="#000000"> &#160;Declarations</text>
<polygon fill="#8dd3c7" stroke="transparent" points="132,-10 132,-30 152,-30 152,-10 132,-10"/>
<text text-anchor="start" x="155.7251" y="-15.4" font-family="sans-serif" font-size="14.00" fill="#000000"> &#160;Module</text>
<polygon fill="#80b1d3" stroke="transparent" points="218,-10 218,-30 238,-30 238,-10 218,-10"/>
<text text-anchor="start" x="241.7812" y="-15.4" font-family="sans-serif" font-size="14.00" fill="#000000"> &#160;Bootstrap</text>
<polygon fill="#fdb462" stroke="transparent" points="315,-10 315,-30 335,-30 335,-10 315,-10"/>
<text text-anchor="start" x="338.6732" y="-15.4" font-family="sans-serif" font-size="14.00" fill="#000000"> &#160;Providers</text>
<polygon fill="#fb8072" stroke="transparent" points="411,-10 411,-30 431,-30 431,-10 411,-10"/>
<text text-anchor="start" x="434.7258" y="-15.4" font-family="sans-serif" font-size="14.00" fill="#000000"> &#160;Exports</text>
<g id="clust1" class="cluster">
<title>cluster_UiConfirmModule</title>
<polygon fill="none" stroke="#000000" stroke-dasharray="1,5" points="8,-70 8,-268 498,-268 498,-70 8,-70"/>
</g>
<g id="clust2" class="cluster">
<title>cluster_UiConfirmModule_declarations</title>
<polygon fill="none" stroke="#000000" points="330,-78 330,-130 490,-130 490,-78 330,-78"/>
</g>
<g id="clust5" class="cluster">
<title>cluster_UiConfirmModule_exports</title>
<polygon fill="none" stroke="#000000" points="159,-208 159,-260 323,-260 323,-208 159,-208"/>
</g>
<g id="clust7" class="cluster">
<title>cluster_UiConfirmModule_providers</title>
<polygon fill="none" stroke="#000000" points="16,-78 16,-130 322,-130 322,-78 16,-78"/>
</g>
<!-- UIConfirmComponent -->
<g id="node1" class="node">
<title>UIConfirmComponent</title>
<polygon fill="#ffffb3" stroke="#000000" points="481.5393,-122 338.4607,-122 338.4607,-86 481.5393,-86 481.5393,-122"/>
<text text-anchor="middle" x="410" y="-99.8" font-family="Times,serif" font-size="14.00" fill="#000000">UIConfirmComponent</text>
</g>
<!-- UiConfirmModule -->
<g id="node2" class="node">
<title>UiConfirmModule</title>
<polygon fill="#8dd3c7" stroke="#000000" points="301.486,-187 298.486,-191 277.486,-191 274.486,-187 180.514,-187 180.514,-151 301.486,-151 301.486,-187"/>
<text text-anchor="middle" x="241" y="-164.8" font-family="Times,serif" font-size="14.00" fill="#000000">UiConfirmModule</text>
</g>
<!-- UIConfirmComponent&#45;&gt;UiConfirmModule -->
<g id="edge1" class="edge">
<title>UIConfirmComponent&#45;&gt;UiConfirmModule</title>
<path fill="none" stroke="#000000" d="M410,-122.1061C410,-141.3391 410,-169 410,-169 410,-169 311.5355,-169 311.5355,-169"/>
<polygon fill="#000000" stroke="#000000" points="311.5356,-165.5001 301.5355,-169 311.5355,-172.5001 311.5356,-165.5001"/>
</g>
<!-- UIConfirmComponent  -->
<g id="node3" class="node">
<title>UIConfirmComponent </title>
<polygon fill="#fb8072" stroke="#000000" points="314.5386,-252 167.4614,-252 167.4614,-216 314.5386,-216 314.5386,-252"/>
<text text-anchor="middle" x="241" y="-229.8" font-family="Times,serif" font-size="14.00" fill="#000000">UIConfirmComponent </text>
</g>
<!-- UiConfirmModule&#45;&gt;UIConfirmComponent  -->
<g id="edge2" class="edge">
<title>UiConfirmModule&#45;&gt;UIConfirmComponent </title>
<path fill="none" stroke="#000000" stroke-dasharray="5,2" d="M241,-187.1061C241,-187.1061 241,-205.991 241,-205.991"/>
<polygon fill="#000000" stroke="#000000" points="237.5001,-205.9909 241,-215.991 244.5001,-205.991 237.5001,-205.9909"/>
</g>
<!-- ConfirmService -->
<g id="node4" class="node">
<title>ConfirmService</title>
<ellipse fill="#fdb462" stroke="#000000" cx="241" cy="-104" rx="72.9295" ry="18"/>
<text text-anchor="middle" x="241" y="-99.8" font-family="Times,serif" font-size="14.00" fill="#000000">ConfirmService</text>
</g>
<!-- ConfirmService&#45;&gt;UiConfirmModule -->
<g id="edge3" class="edge">
<title>ConfirmService&#45;&gt;UiConfirmModule</title>
<path fill="none" stroke="#000000" d="M241,-122.1061C241,-122.1061 241,-140.991 241,-140.991"/>
<polygon fill="#000000" stroke="#000000" points="237.5001,-140.9909 241,-150.991 244.5001,-140.991 237.5001,-140.9909"/>
</g>
<!-- ConfirmState -->
<g id="node5" class="node">
<title>ConfirmState</title>
<ellipse fill="#fdb462" stroke="#000000" cx="87" cy="-104" rx="63.1363" ry="18"/>
<text text-anchor="middle" x="87" y="-99.8" font-family="Times,serif" font-size="14.00" fill="#000000">ConfirmState</text>
</g>
<!-- ConfirmState&#45;&gt;UiConfirmModule -->
<g id="edge4" class="edge">
<title>ConfirmState&#45;&gt;UiConfirmModule</title>
<path fill="none" stroke="#000000" d="M87,-122.1061C87,-141.3391 87,-169 87,-169 87,-169 170.1351,-169 170.1351,-169"/>
<polygon fill="#000000" stroke="#000000" points="170.1352,-172.5001 180.1351,-169 170.1351,-165.5001 170.1352,-172.5001"/>
</g>
</g>
</svg>
