<?xml version="1.0" encoding="UTF-8" standalone="no"?>
<!DOCTYPE svg PUBLIC "-//W3C//DTD SVG 1.1//EN"
 "http://www.w3.org/Graphics/SVG/1.1/DTD/svg11.dtd">
<!-- Generated by graphviz version 2.40.1 (20161225.0304)
 -->
<!-- Title: dependencies Pages: 1 -->
<svg width="617pt" height="211pt"
 viewBox="0.00 0.00 617.00 211.00" xmlns="http://www.w3.org/2000/svg" xmlns:xlink="http://www.w3.org/1999/xlink">
<g id="graph0" class="graph" transform="scale(1 1) rotate(0) translate(4 207)">
<title>dependencies</title>
<polygon fill="#ffffff" stroke="transparent" points="-4,4 -4,-207 613,-207 613,4 -4,4"/>
<text text-anchor="start" x="283.5091" y="-42.4" font-family="sans-serif" font-weight="bold" font-size="14.00" fill="#000000">Legend</text>
<polygon fill="#ffffb3" stroke="transparent" points="70.5,-10 70.5,-30 90.5,-30 90.5,-10 70.5,-10"/>
<text text-anchor="start" x="94.129" y="-15.4" font-family="sans-serif" font-size="14.00" fill="#000000"> &#160;Declarations</text>
<polygon fill="#8dd3c7" stroke="transparent" points="183.5,-10 183.5,-30 203.5,-30 203.5,-10 183.5,-10"/>
<text text-anchor="start" x="207.2251" y="-15.4" font-family="sans-serif" font-size="14.00" fill="#000000"> &#160;Module</text>
<polygon fill="#80b1d3" stroke="transparent" points="269.5,-10 269.5,-30 289.5,-30 289.5,-10 269.5,-10"/>
<text text-anchor="start" x="293.2812" y="-15.4" font-family="sans-serif" font-size="14.00" fill="#000000"> &#160;Bootstrap</text>
<polygon fill="#fdb462" stroke="transparent" points="366.5,-10 366.5,-30 386.5,-30 386.5,-10 366.5,-10"/>
<text text-anchor="start" x="390.1732" y="-15.4" font-family="sans-serif" font-size="14.00" fill="#000000"> &#160;Providers</text>
<polygon fill="#fb8072" stroke="transparent" points="462.5,-10 462.5,-30 482.5,-30 482.5,-10 462.5,-10"/>
<text text-anchor="start" x="486.2258" y="-15.4" font-family="sans-serif" font-size="14.00" fill="#000000"> &#160;Exports</text>
<g id="clust1" class="cluster">
<title>cluster_BlogLayoutModule</title>
<polygon fill="none" stroke="#000000" stroke-dasharray="1,5" points="8,-70 8,-195 601,-195 601,-70 8,-70"/>
</g>
<g id="clust2" class="cluster">
<title>cluster_BlogLayoutModule_declarations</title>
<polygon fill="none" stroke="#000000" points="401,-78 401,-130 593,-130 593,-78 401,-78"/>
</g>
<g id="clust4" class="cluster">
<title>cluster_BlogLayoutModule_imports</title>
<polygon fill="none" stroke="#000000" points="16,-78 16,-130 393,-130 393,-78 16,-78"/>
</g>
<!-- ...fromContainers.containers -->
<g id="node1" class="node">
<title>...fromContainers.containers</title>
<polygon fill="#ffffb3" stroke="#000000" points="584.8946,-122 409.1054,-122 409.1054,-86 584.8946,-86 584.8946,-122"/>
<text text-anchor="middle" x="497" y="-99.8" font-family="Times,serif" font-size="14.00" fill="#000000">...fromContainers.containers</text>
</g>
<!-- BlogLayoutModule -->
<g id="node2" class="node">
<title>BlogLayoutModule</title>
<polygon fill="#8dd3c7" stroke="#000000" points="342.4356,-187 339.4356,-191 318.4356,-191 315.4356,-187 215.5644,-187 215.5644,-151 342.4356,-151 342.4356,-187"/>
<text text-anchor="middle" x="279" y="-164.8" font-family="Times,serif" font-size="14.00" fill="#000000">BlogLayoutModule</text>
</g>
<!-- ...fromContainers.containers&#45;&gt;BlogLayoutModule -->
<g id="edge1" class="edge">
<title>...fromContainers.containers&#45;&gt;BlogLayoutModule</title>
<path fill="none" stroke="#000000" d="M497,-122.1061C497,-141.3391 497,-169 497,-169 497,-169 352.3475,-169 352.3475,-169"/>
<polygon fill="#000000" stroke="#000000" points="352.3475,-165.5001 342.3475,-169 352.3474,-172.5001 352.3475,-165.5001"/>
</g>
<!-- IconsModule -->
<g id="node3" class="node">
<title>IconsModule</title>
<polygon fill="#8dd3c7" stroke="#000000" points="384.8697,-122 381.8697,-126 360.8697,-126 357.8697,-122 295.1303,-122 295.1303,-86 384.8697,-86 384.8697,-122"/>
<text text-anchor="middle" x="340" y="-99.8" font-family="Times,serif" font-size="14.00" fill="#000000">IconsModule</text>
</g>
<!-- IconsModule&#45;&gt;BlogLayoutModule -->
<g id="edge2" class="edge">
<title>IconsModule&#45;&gt;BlogLayoutModule</title>
<path fill="none" stroke="#000000" d="M318.6413,-122.1061C318.6413,-122.1061 318.6413,-140.991 318.6413,-140.991"/>
<polygon fill="#000000" stroke="#000000" points="315.1414,-140.9909 318.6413,-150.991 322.1414,-140.991 315.1414,-140.9909"/>
</g>
<!-- UiButtonsModule -->
<g id="node4" class="node">
<title>UiButtonsModule</title>
<polygon fill="#8dd3c7" stroke="#000000" points="277.6095,-122 274.6095,-126 253.6095,-126 250.6095,-122 160.3905,-122 160.3905,-86 277.6095,-86 277.6095,-122"/>
<text text-anchor="middle" x="219" y="-99.8" font-family="Times,serif" font-size="14.00" fill="#000000">UiButtonsModule</text>
</g>
<!-- UiButtonsModule&#45;&gt;BlogLayoutModule -->
<g id="edge3" class="edge">
<title>UiButtonsModule&#45;&gt;BlogLayoutModule</title>
<path fill="none" stroke="#000000" d="M246.6687,-122.1061C246.6687,-122.1061 246.6687,-140.991 246.6687,-140.991"/>
<polygon fill="#000000" stroke="#000000" points="243.1687,-140.9909 246.6687,-150.991 250.1687,-140.991 243.1687,-140.9909"/>
</g>
<!-- UiUtilitiesModule -->
<g id="node5" class="node">
<title>UiUtilitiesModule</title>
<polygon fill="#8dd3c7" stroke="#000000" points="142.1569,-122 139.1569,-126 118.1569,-126 115.1569,-122 23.8431,-122 23.8431,-86 142.1569,-86 142.1569,-122"/>
<text text-anchor="middle" x="83" y="-99.8" font-family="Times,serif" font-size="14.00" fill="#000000">UiUtilitiesModule</text>
</g>
<!-- UiUtilitiesModule&#45;&gt;BlogLayoutModule -->
<g id="edge4" class="edge">
<title>UiUtilitiesModule&#45;&gt;BlogLayoutModule</title>
<path fill="none" stroke="#000000" d="M83,-122.1061C83,-141.3391 83,-169 83,-169 83,-169 205.6351,-169 205.6351,-169"/>
<polygon fill="#000000" stroke="#000000" points="205.6351,-172.5001 215.6351,-169 205.6351,-165.5001 205.6351,-172.5001"/>
</g>
</g>
</svg>
