<?xml version="1.0" encoding="UTF-8" standalone="no"?>
<!DOCTYPE svg PUBLIC "-//W3C//DTD SVG 1.1//EN"
 "http://www.w3.org/Graphics/SVG/1.1/DTD/svg11.dtd">
<!-- Generated by graphviz version 2.40.1 (20161225.0304)
 -->
<!-- Title: dependencies Pages: 1 -->
<svg width="504pt" height="211pt"
 viewBox="0.00 0.00 504.00 211.00" xmlns="http://www.w3.org/2000/svg" xmlns:xlink="http://www.w3.org/1999/xlink">
<g id="graph0" class="graph" transform="scale(1 1) rotate(0) translate(4 207)">
<title>dependencies</title>
<polygon fill="#ffffff" stroke="transparent" points="-4,4 -4,-207 500,-207 500,4 -4,4"/>
<text text-anchor="start" x="227.0091" y="-42.4" font-family="sans-serif" font-weight="bold" font-size="14.00" fill="#000000">Legend</text>
<polygon fill="#ffffb3" stroke="transparent" points="14,-10 14,-30 34,-30 34,-10 14,-10"/>
<text text-anchor="start" x="37.629" y="-15.4" font-family="sans-serif" font-size="14.00" fill="#000000"> &#160;Declarations</text>
<polygon fill="#8dd3c7" stroke="transparent" points="127,-10 127,-30 147,-30 147,-10 127,-10"/>
<text text-anchor="start" x="150.7251" y="-15.4" font-family="sans-serif" font-size="14.00" fill="#000000"> &#160;Module</text>
<polygon fill="#80b1d3" stroke="transparent" points="213,-10 213,-30 233,-30 233,-10 213,-10"/>
<text text-anchor="start" x="236.7812" y="-15.4" font-family="sans-serif" font-size="14.00" fill="#000000"> &#160;Bootstrap</text>
<polygon fill="#fdb462" stroke="transparent" points="310,-10 310,-30 330,-30 330,-10 310,-10"/>
<text text-anchor="start" x="333.6732" y="-15.4" font-family="sans-serif" font-size="14.00" fill="#000000"> &#160;Providers</text>
<polygon fill="#fb8072" stroke="transparent" points="406,-10 406,-30 426,-30 426,-10 406,-10"/>
<text text-anchor="start" x="429.7258" y="-15.4" font-family="sans-serif" font-size="14.00" fill="#000000"> &#160;Exports</text>
<g id="clust1" class="cluster">
<title>cluster_AdminLayoutModule</title>
<polygon fill="none" stroke="#000000" stroke-dasharray="1,5" points="19,-70 19,-195 477,-195 477,-70 19,-70"/>
</g>
<g id="clust2" class="cluster">
<title>cluster_AdminLayoutModule_declarations</title>
<polygon fill="none" stroke="#000000" points="277,-78 277,-130 469,-130 469,-78 277,-78"/>
</g>
<g id="clust4" class="cluster">
<title>cluster_AdminLayoutModule_imports</title>
<polygon fill="none" stroke="#000000" points="27,-78 27,-130 269,-130 269,-78 27,-78"/>
</g>
<!-- ...fromContainers.containers -->
<g id="node1" class="node">
<title>...fromContainers.containers</title>
<polygon fill="#ffffb3" stroke="#000000" points="460.8946,-122 285.1054,-122 285.1054,-86 460.8946,-86 460.8946,-122"/>
<text text-anchor="middle" x="373" y="-99.8" font-family="Times,serif" font-size="14.00" fill="#000000">...fromContainers.containers</text>
</g>
<!-- AdminLayoutModule -->
<g id="node2" class="node">
<title>AdminLayoutModule</title>
<polygon fill="#8dd3c7" stroke="#000000" points="285.0954,-187 282.0954,-191 261.0954,-191 258.0954,-187 146.9046,-187 146.9046,-151 285.0954,-151 285.0954,-187"/>
<text text-anchor="middle" x="216" y="-164.8" font-family="Times,serif" font-size="14.00" fill="#000000">AdminLayoutModule</text>
</g>
<!-- ...fromContainers.containers&#45;&gt;AdminLayoutModule -->
<g id="edge1" class="edge">
<title>...fromContainers.containers&#45;&gt;AdminLayoutModule</title>
<path fill="none" stroke="#000000" d="M285.2543,-104C277.7768,-104 272.9913,-104 272.9913,-104 272.9913,-104 272.9913,-140.8939 272.9913,-140.8939"/>
<polygon fill="#000000" stroke="#000000" points="269.4913,-140.8938 272.9913,-150.8939 276.4913,-140.8939 269.4913,-140.8938"/>
</g>
<!-- IconsModule -->
<g id="node3" class="node">
<title>IconsModule</title>
<polygon fill="#8dd3c7" stroke="#000000" points="260.8697,-122 257.8697,-126 236.8697,-126 233.8697,-122 171.1303,-122 171.1303,-86 260.8697,-86 260.8697,-122"/>
<text text-anchor="middle" x="216" y="-99.8" font-family="Times,serif" font-size="14.00" fill="#000000">IconsModule</text>
</g>
<!-- IconsModule&#45;&gt;AdminLayoutModule -->
<g id="edge2" class="edge">
<title>IconsModule&#45;&gt;AdminLayoutModule</title>
<path fill="none" stroke="#000000" d="M216,-122.1061C216,-122.1061 216,-140.991 216,-140.991"/>
<polygon fill="#000000" stroke="#000000" points="212.5001,-140.9909 216,-150.991 219.5001,-140.991 212.5001,-140.9909"/>
</g>
<!-- UiUtilitiesModule -->
<g id="node4" class="node">
<title>UiUtilitiesModule</title>
<polygon fill="#8dd3c7" stroke="#000000" points="153.1569,-122 150.1569,-126 129.1569,-126 126.1569,-122 34.8431,-122 34.8431,-86 153.1569,-86 153.1569,-122"/>
<text text-anchor="middle" x="94" y="-99.8" font-family="Times,serif" font-size="14.00" fill="#000000">UiUtilitiesModule</text>
</g>
<!-- UiUtilitiesModule&#45;&gt;AdminLayoutModule -->
<g id="edge3" class="edge">
<title>UiUtilitiesModule&#45;&gt;AdminLayoutModule</title>
<path fill="none" stroke="#000000" d="M153.2812,-104C158.6961,-104 162.1967,-104 162.1967,-104 162.1967,-104 162.1967,-140.8939 162.1967,-140.8939"/>
<polygon fill="#000000" stroke="#000000" points="158.6968,-140.8938 162.1967,-150.8939 165.6968,-140.8939 158.6968,-140.8938"/>
</g>
</g>
</svg>
