<?xml version="1.0" encoding="UTF-8" standalone="no"?>
<!DOCTYPE svg PUBLIC "-//W3C//DTD SVG 1.1//EN"
 "http://www.w3.org/Graphics/SVG/1.1/DTD/svg11.dtd">
<!-- Generated by graphviz version 2.40.1 (20161225.0304)
 -->
<!-- Title: dependencies Pages: 1 -->
<svg width="504pt" height="211pt"
 viewBox="0.00 0.00 504.00 211.00" xmlns="http://www.w3.org/2000/svg" xmlns:xlink="http://www.w3.org/1999/xlink">
<g id="graph0" class="graph" transform="scale(1 1) rotate(0) translate(4 207)">
<title>dependencies</title>
<polygon fill="#ffffff" stroke="transparent" points="-4,4 -4,-207 500,-207 500,4 -4,4"/>
<text text-anchor="start" x="227.0091" y="-42.4" font-family="sans-serif" font-weight="bold" font-size="14.00" fill="#000000">Legend</text>
<polygon fill="#ffffb3" stroke="transparent" points="14,-10 14,-30 34,-30 34,-10 14,-10"/>
<text text-anchor="start" x="37.629" y="-15.4" font-family="sans-serif" font-size="14.00" fill="#000000"> &#160;Declarations</text>
<polygon fill="#8dd3c7" stroke="transparent" points="127,-10 127,-30 147,-30 147,-10 127,-10"/>
<text text-anchor="start" x="150.7251" y="-15.4" font-family="sans-serif" font-size="14.00" fill="#000000"> &#160;Module</text>
<polygon fill="#80b1d3" stroke="transparent" points="213,-10 213,-30 233,-30 233,-10 213,-10"/>
<text text-anchor="start" x="236.7812" y="-15.4" font-family="sans-serif" font-size="14.00" fill="#000000"> &#160;Bootstrap</text>
<polygon fill="#fdb462" stroke="transparent" points="310,-10 310,-30 330,-30 330,-10 310,-10"/>
<text text-anchor="start" x="333.6732" y="-15.4" font-family="sans-serif" font-size="14.00" fill="#000000"> &#160;Providers</text>
<polygon fill="#fb8072" stroke="transparent" points="406,-10 406,-30 426,-30 426,-10 406,-10"/>
<text text-anchor="start" x="429.7258" y="-15.4" font-family="sans-serif" font-size="14.00" fill="#000000"> &#160;Exports</text>
<g id="clust1" class="cluster">
<title>cluster_BlogAboutModule</title>
<polygon fill="none" stroke="#000000" stroke-dasharray="1,5" points="49,-70 49,-195 447,-195 447,-70 49,-70"/>
</g>
<g id="clust2" class="cluster">
<title>cluster_BlogAboutModule_declarations</title>
<polygon fill="none" stroke="#000000" points="247,-78 247,-130 439,-130 439,-78 247,-78"/>
</g>
<g id="clust4" class="cluster">
<title>cluster_BlogAboutModule_imports</title>
<polygon fill="none" stroke="#000000" points="57,-78 57,-130 239,-130 239,-78 57,-78"/>
</g>
<!-- ...fromContainers.containers -->
<g id="node1" class="node">
<title>...fromContainers.containers</title>
<polygon fill="#ffffb3" stroke="#000000" points="430.8946,-122 255.1054,-122 255.1054,-86 430.8946,-86 430.8946,-122"/>
<text text-anchor="middle" x="343" y="-99.8" font-family="Times,serif" font-size="14.00" fill="#000000">...fromContainers.containers</text>
</g>
<!-- BlogAboutModule -->
<g id="node2" class="node">
<title>BlogAboutModule</title>
<polygon fill="#8dd3c7" stroke="#000000" points="305.7744,-187 302.7744,-191 281.7744,-191 278.7744,-187 184.2256,-187 184.2256,-151 305.7744,-151 305.7744,-187"/>
<text text-anchor="middle" x="245" y="-164.8" font-family="Times,serif" font-size="14.00" fill="#000000">BlogAboutModule</text>
</g>
<!-- ...fromContainers.containers&#45;&gt;BlogAboutModule -->
<g id="edge1" class="edge">
<title>...fromContainers.containers&#45;&gt;BlogAboutModule</title>
<path fill="none" stroke="#000000" d="M280.595,-122.1061C280.595,-122.1061 280.595,-140.991 280.595,-140.991"/>
<polygon fill="#000000" stroke="#000000" points="277.0951,-140.9909 280.595,-150.991 284.0951,-140.991 277.0951,-140.9909"/>
</g>
<!-- BlogAboutRoutingModule -->
<g id="node3" class="node">
<title>BlogAboutRoutingModule</title>
<polygon fill="#8dd3c7" stroke="#000000" points="231.392,-122 228.392,-126 207.392,-126 204.392,-122 64.608,-122 64.608,-86 231.392,-86 231.392,-122"/>
<text text-anchor="middle" x="148" y="-99.8" font-family="Times,serif" font-size="14.00" fill="#000000">BlogAboutRoutingModule</text>
</g>
<!-- BlogAboutRoutingModule&#45;&gt;BlogAboutModule -->
<g id="edge2" class="edge">
<title>BlogAboutRoutingModule&#45;&gt;BlogAboutModule</title>
<path fill="none" stroke="#000000" d="M207.7795,-122.1061C207.7795,-122.1061 207.7795,-140.991 207.7795,-140.991"/>
<polygon fill="#000000" stroke="#000000" points="204.2795,-140.9909 207.7795,-150.991 211.2795,-140.991 204.2795,-140.9909"/>
</g>
</g>
</svg>
