<?xml version="1.0" encoding="UTF-8" standalone="no"?>
<!DOCTYPE svg PUBLIC "-//W3C//DTD SVG 1.1//EN"
 "http://www.w3.org/Graphics/SVG/1.1/DTD/svg11.dtd">
<!-- Generated by graphviz version 2.40.1 (20161225.0304)
 -->
<!-- Title: dependencies Pages: 1 -->
<svg width="1071pt" height="211pt"
 viewBox="0.00 0.00 1071.00 211.00" xmlns="http://www.w3.org/2000/svg" xmlns:xlink="http://www.w3.org/1999/xlink">
<g id="graph0" class="graph" transform="scale(1 1) rotate(0) translate(4 207)">
<title>dependencies</title>
<polygon fill="#ffffff" stroke="transparent" points="-4,4 -4,-207 1067,-207 1067,4 -4,4"/>
<text text-anchor="start" x="510.5091" y="-42.4" font-family="sans-serif" font-weight="bold" font-size="14.00" fill="#000000">Legend</text>
<polygon fill="#ffffb3" stroke="transparent" points="297.5,-10 297.5,-30 317.5,-30 317.5,-10 297.5,-10"/>
<text text-anchor="start" x="321.129" y="-15.4" font-family="sans-serif" font-size="14.00" fill="#000000"> &#160;Declarations</text>
<polygon fill="#8dd3c7" stroke="transparent" points="410.5,-10 410.5,-30 430.5,-30 430.5,-10 410.5,-10"/>
<text text-anchor="start" x="434.2251" y="-15.4" font-family="sans-serif" font-size="14.00" fill="#000000"> &#160;Module</text>
<polygon fill="#80b1d3" stroke="transparent" points="496.5,-10 496.5,-30 516.5,-30 516.5,-10 496.5,-10"/>
<text text-anchor="start" x="520.2812" y="-15.4" font-family="sans-serif" font-size="14.00" fill="#000000"> &#160;Bootstrap</text>
<polygon fill="#fdb462" stroke="transparent" points="593.5,-10 593.5,-30 613.5,-30 613.5,-10 593.5,-10"/>
<text text-anchor="start" x="617.1732" y="-15.4" font-family="sans-serif" font-size="14.00" fill="#000000"> &#160;Providers</text>
<polygon fill="#fb8072" stroke="transparent" points="689.5,-10 689.5,-30 709.5,-30 709.5,-10 689.5,-10"/>
<text text-anchor="start" x="713.2258" y="-15.4" font-family="sans-serif" font-size="14.00" fill="#000000"> &#160;Exports</text>
<g id="clust1" class="cluster">
<title>cluster_AuthenticationModule</title>
<polygon fill="none" stroke="#000000" stroke-dasharray="1,5" points="8,-70 8,-195 1055,-195 1055,-70 8,-70"/>
</g>
<g id="clust2" class="cluster">
<title>cluster_AuthenticationModule_declarations</title>
<polygon fill="none" stroke="#000000" points="855,-78 855,-130 1047,-130 1047,-78 855,-78"/>
</g>
<g id="clust4" class="cluster">
<title>cluster_AuthenticationModule_imports</title>
<polygon fill="none" stroke="#000000" points="16,-78 16,-130 847,-130 847,-78 16,-78"/>
</g>
<!-- ...fromContainers.containers -->
<g id="node1" class="node">
<title>...fromContainers.containers</title>
<polygon fill="#ffffb3" stroke="#000000" points="1038.8946,-122 863.1054,-122 863.1054,-86 1038.8946,-86 1038.8946,-122"/>
<text text-anchor="middle" x="951" y="-99.8" font-family="Times,serif" font-size="14.00" fill="#000000">...fromContainers.containers</text>
</g>
<!-- AuthenticationModule -->
<g id="node2" class="node">
<title>AuthenticationModule</title>
<polygon fill="#8dd3c7" stroke="#000000" points="537.2534,-187 534.2534,-191 513.2534,-191 510.2534,-187 394.7466,-187 394.7466,-151 537.2534,-151 537.2534,-187"/>
<text text-anchor="middle" x="466" y="-164.8" font-family="Times,serif" font-size="14.00" fill="#000000">AuthenticationModule</text>
</g>
<!-- ...fromContainers.containers&#45;&gt;AuthenticationModule -->
<g id="edge1" class="edge">
<title>...fromContainers.containers&#45;&gt;AuthenticationModule</title>
<path fill="none" stroke="#000000" d="M951,-122.2843C951,-143.3211 951,-175 951,-175 951,-175 547.3028,-175 547.3028,-175"/>
<polygon fill="#000000" stroke="#000000" points="547.3029,-171.5001 537.3028,-175 547.3028,-178.5001 547.3029,-171.5001"/>
</g>
<!-- AuthenticationLayoutModule -->
<g id="node3" class="node">
<title>AuthenticationLayoutModule</title>
<polygon fill="#8dd3c7" stroke="#000000" points="839.4115,-122 836.4115,-126 815.4115,-126 812.4115,-122 656.5885,-122 656.5885,-86 839.4115,-86 839.4115,-122"/>
<text text-anchor="middle" x="748" y="-99.8" font-family="Times,serif" font-size="14.00" fill="#000000">AuthenticationLayoutModule</text>
</g>
<!-- AuthenticationLayoutModule&#45;&gt;AuthenticationModule -->
<g id="edge2" class="edge">
<title>AuthenticationLayoutModule&#45;&gt;AuthenticationModule</title>
<path fill="none" stroke="#000000" d="M748,-122.0225C748,-139.3734 748,-163 748,-163 748,-163 547.5251,-163 547.5251,-163"/>
<polygon fill="#000000" stroke="#000000" points="547.5251,-159.5001 537.5251,-163 547.525,-166.5001 547.5251,-159.5001"/>
</g>
<!-- AuthenticationRoutingModule -->
<g id="node4" class="node">
<title>AuthenticationRoutingModule</title>
<polygon fill="#8dd3c7" stroke="#000000" points="638.871,-122 635.871,-126 614.871,-126 611.871,-122 451.129,-122 451.129,-86 638.871,-86 638.871,-122"/>
<text text-anchor="middle" x="545" y="-99.8" font-family="Times,serif" font-size="14.00" fill="#000000">AuthenticationRoutingModule</text>
</g>
<!-- AuthenticationRoutingModule&#45;&gt;AuthenticationModule -->
<g id="edge3" class="edge">
<title>AuthenticationRoutingModule&#45;&gt;AuthenticationModule</title>
<path fill="none" stroke="#000000" d="M494.2206,-122.1061C494.2206,-122.1061 494.2206,-140.991 494.2206,-140.991"/>
<polygon fill="#000000" stroke="#000000" points="490.7206,-140.9909 494.2206,-150.991 497.7206,-140.991 490.7206,-140.9909"/>
</g>
<!-- IconsModule -->
<g id="node5" class="node">
<title>IconsModule</title>
<polygon fill="#8dd3c7" stroke="#000000" points="432.8697,-122 429.8697,-126 408.8697,-126 405.8697,-122 343.1303,-122 343.1303,-86 432.8697,-86 432.8697,-122"/>
<text text-anchor="middle" x="388" y="-99.8" font-family="Times,serif" font-size="14.00" fill="#000000">IconsModule</text>
</g>
<!-- IconsModule&#45;&gt;AuthenticationModule -->
<g id="edge4" class="edge">
<title>IconsModule&#45;&gt;AuthenticationModule</title>
<path fill="none" stroke="#000000" d="M413.7791,-122.1061C413.7791,-122.1061 413.7791,-140.991 413.7791,-140.991"/>
<polygon fill="#000000" stroke="#000000" points="410.2792,-140.9909 413.7791,-150.991 417.2792,-140.991 410.2792,-140.9909"/>
</g>
<!-- UiButtonSpinnerModule -->
<g id="node6" class="node">
<title>UiButtonSpinnerModule</title>
<polygon fill="#8dd3c7" stroke="#000000" points="324.7133,-122 321.7133,-126 300.7133,-126 297.7133,-122 169.2867,-122 169.2867,-86 324.7133,-86 324.7133,-122"/>
<text text-anchor="middle" x="247" y="-99.8" font-family="Times,serif" font-size="14.00" fill="#000000">UiButtonSpinnerModule</text>
</g>
<!-- UiButtonSpinnerModule&#45;&gt;AuthenticationModule -->
<g id="edge5" class="edge">
<title>UiButtonSpinnerModule&#45;&gt;AuthenticationModule</title>
<path fill="none" stroke="#000000" d="M247,-122.0225C247,-139.3734 247,-163 247,-163 247,-163 384.5942,-163 384.5942,-163"/>
<polygon fill="#000000" stroke="#000000" points="384.5943,-166.5001 394.5942,-163 384.5942,-159.5001 384.5943,-166.5001"/>
</g>
<!-- UiPasswordModule -->
<g id="node7" class="node">
<title>UiPasswordModule</title>
<polygon fill="#8dd3c7" stroke="#000000" points="151.7008,-122 148.7008,-126 127.7008,-126 124.7008,-122 24.2992,-122 24.2992,-86 151.7008,-86 151.7008,-122"/>
<text text-anchor="middle" x="88" y="-99.8" font-family="Times,serif" font-size="14.00" fill="#000000">UiPasswordModule</text>
</g>
<!-- UiPasswordModule&#45;&gt;AuthenticationModule -->
<g id="edge6" class="edge">
<title>UiPasswordModule&#45;&gt;AuthenticationModule</title>
<path fill="none" stroke="#000000" d="M88,-122.2843C88,-143.3211 88,-175 88,-175 88,-175 384.4567,-175 384.4567,-175"/>
<polygon fill="#000000" stroke="#000000" points="384.4567,-178.5001 394.4567,-175 384.4567,-171.5001 384.4567,-178.5001"/>
</g>
</g>
</svg>
