<?xml version="1.0" encoding="UTF-8" standalone="no"?>
<!DOCTYPE svg PUBLIC "-//W3C//DTD SVG 1.1//EN"
 "http://www.w3.org/Graphics/SVG/1.1/DTD/svg11.dtd">
<!-- Generated by graphviz version 2.40.1 (20161225.0304)
 -->
<!-- Title: dependencies Pages: 1 -->
<svg width="1399pt" height="211pt"
 viewBox="0.00 0.00 1399.00 211.00" xmlns="http://www.w3.org/2000/svg" xmlns:xlink="http://www.w3.org/1999/xlink">
<g id="graph0" class="graph" transform="scale(1 1) rotate(0) translate(4 207)">
<title>dependencies</title>
<polygon fill="#ffffff" stroke="transparent" points="-4,4 -4,-207 1395,-207 1395,4 -4,4"/>
<text text-anchor="start" x="674.5091" y="-42.4" font-family="sans-serif" font-weight="bold" font-size="14.00" fill="#000000">Legend</text>
<polygon fill="#ffffb3" stroke="transparent" points="461.5,-10 461.5,-30 481.5,-30 481.5,-10 461.5,-10"/>
<text text-anchor="start" x="485.129" y="-15.4" font-family="sans-serif" font-size="14.00" fill="#000000"> &#160;Declarations</text>
<polygon fill="#8dd3c7" stroke="transparent" points="574.5,-10 574.5,-30 594.5,-30 594.5,-10 574.5,-10"/>
<text text-anchor="start" x="598.2251" y="-15.4" font-family="sans-serif" font-size="14.00" fill="#000000"> &#160;Module</text>
<polygon fill="#80b1d3" stroke="transparent" points="660.5,-10 660.5,-30 680.5,-30 680.5,-10 660.5,-10"/>
<text text-anchor="start" x="684.2812" y="-15.4" font-family="sans-serif" font-size="14.00" fill="#000000"> &#160;Bootstrap</text>
<polygon fill="#fdb462" stroke="transparent" points="757.5,-10 757.5,-30 777.5,-30 777.5,-10 757.5,-10"/>
<text text-anchor="start" x="781.1732" y="-15.4" font-family="sans-serif" font-size="14.00" fill="#000000"> &#160;Providers</text>
<polygon fill="#fb8072" stroke="transparent" points="853.5,-10 853.5,-30 873.5,-30 873.5,-10 853.5,-10"/>
<text text-anchor="start" x="877.2258" y="-15.4" font-family="sans-serif" font-size="14.00" fill="#000000"> &#160;Exports</text>
<g id="clust1" class="cluster">
<title>cluster_AdminPostsModule</title>
<polygon fill="none" stroke="#000000" stroke-dasharray="1,5" points="8,-70 8,-195 1383,-195 1383,-70 8,-70"/>
</g>
<g id="clust2" class="cluster">
<title>cluster_AdminPostsModule_declarations</title>
<polygon fill="none" stroke="#000000" points="1025,-78 1025,-130 1375,-130 1375,-78 1025,-78"/>
</g>
<g id="clust5" class="cluster">
<title>cluster_AdminPostsModule_imports</title>
<polygon fill="none" stroke="#000000" points="16,-78 16,-130 1017,-130 1017,-78 16,-78"/>
</g>
<!-- ...fromContainers.containers -->
<g id="node1" class="node">
<title>...fromContainers.containers</title>
<polygon fill="#ffffb3" stroke="#000000" points="1366.8946,-122 1191.1054,-122 1191.1054,-86 1366.8946,-86 1366.8946,-122"/>
<text text-anchor="middle" x="1279" y="-99.8" font-family="Times,serif" font-size="14.00" fill="#000000">...fromContainers.containers</text>
</g>
<!-- AdminPostsModule -->
<g id="node3" class="node">
<title>AdminPostsModule</title>
<polygon fill="#8dd3c7" stroke="#000000" points="696,-187 693,-191 672,-191 669,-187 568,-187 568,-151 696,-151 696,-187"/>
<text text-anchor="middle" x="632" y="-164.8" font-family="Times,serif" font-size="14.00" fill="#000000">AdminPostsModule</text>
</g>
<!-- ...fromContainers.containers&#45;&gt;AdminPostsModule -->
<g id="edge1" class="edge">
<title>...fromContainers.containers&#45;&gt;AdminPostsModule</title>
<path fill="none" stroke="#000000" d="M1279,-122.0109C1279,-144.4852 1279,-180 1279,-180 1279,-180 706.1046,-180 706.1046,-180"/>
<polygon fill="#000000" stroke="#000000" points="706.1046,-176.5001 696.1046,-180 706.1046,-183.5001 706.1046,-176.5001"/>
</g>
<!-- ...fromModals.modals -->
<g id="node2" class="node">
<title>...fromModals.modals</title>
<polygon fill="#ffffb3" stroke="#000000" points="1172.647,-122 1033.353,-122 1033.353,-86 1172.647,-86 1172.647,-122"/>
<text text-anchor="middle" x="1103" y="-99.8" font-family="Times,serif" font-size="14.00" fill="#000000">...fromModals.modals</text>
</g>
<!-- ...fromModals.modals&#45;&gt;AdminPostsModule -->
<g id="edge2" class="edge">
<title>...fromModals.modals&#45;&gt;AdminPostsModule</title>
<path fill="none" stroke="#000000" d="M1103,-122.1289C1103,-142.5724 1103,-173 1103,-173 1103,-173 706.0113,-173 706.0113,-173"/>
<polygon fill="#000000" stroke="#000000" points="706.0114,-169.5001 696.0113,-173 706.0113,-176.5001 706.0114,-169.5001"/>
</g>
<!-- AdminPostsRoutingModule -->
<g id="node4" class="node">
<title>AdminPostsRoutingModule</title>
<polygon fill="#8dd3c7" stroke="#000000" points="1008.6178,-122 1005.6178,-126 984.6178,-126 981.6178,-122 835.3822,-122 835.3822,-86 1008.6178,-86 1008.6178,-122"/>
<text text-anchor="middle" x="922" y="-99.8" font-family="Times,serif" font-size="14.00" fill="#000000">AdminPostsRoutingModule</text>
</g>
<!-- AdminPostsRoutingModule&#45;&gt;AdminPostsModule -->
<g id="edge3" class="edge">
<title>AdminPostsRoutingModule&#45;&gt;AdminPostsModule</title>
<path fill="none" stroke="#000000" d="M922,-122.2667C922,-140.5552 922,-166 922,-166 922,-166 706.0007,-166 706.0007,-166"/>
<polygon fill="#000000" stroke="#000000" points="706.0008,-162.5001 696.0007,-166 706.0007,-169.5001 706.0008,-162.5001"/>
</g>
<!-- IconsModule -->
<g id="node5" class="node">
<title>IconsModule</title>
<polygon fill="#8dd3c7" stroke="#000000" points="817.8697,-122 814.8697,-126 793.8697,-126 790.8697,-122 728.1303,-122 728.1303,-86 817.8697,-86 817.8697,-122"/>
<text text-anchor="middle" x="773" y="-99.8" font-family="Times,serif" font-size="14.00" fill="#000000">IconsModule</text>
</g>
<!-- IconsModule&#45;&gt;AdminPostsModule -->
<g id="edge4" class="edge">
<title>IconsModule&#45;&gt;AdminPostsModule</title>
<path fill="none" stroke="#000000" d="M773,-122.0091C773,-138.0494 773,-159 773,-159 773,-159 706.3108,-159 706.3108,-159"/>
<polygon fill="#000000" stroke="#000000" points="706.3108,-155.5001 696.3108,-159 706.3108,-162.5001 706.3108,-155.5001"/>
</g>
<!-- UiButtonSpinnerModule -->
<g id="node6" class="node">
<title>UiButtonSpinnerModule</title>
<polygon fill="#8dd3c7" stroke="#000000" points="709.7133,-122 706.7133,-126 685.7133,-126 682.7133,-122 554.2867,-122 554.2867,-86 709.7133,-86 709.7133,-122"/>
<text text-anchor="middle" x="632" y="-99.8" font-family="Times,serif" font-size="14.00" fill="#000000">UiButtonSpinnerModule</text>
</g>
<!-- UiButtonSpinnerModule&#45;&gt;AdminPostsModule -->
<g id="edge5" class="edge">
<title>UiButtonSpinnerModule&#45;&gt;AdminPostsModule</title>
<path fill="none" stroke="#000000" d="M632,-122.1061C632,-122.1061 632,-140.991 632,-140.991"/>
<polygon fill="#000000" stroke="#000000" points="628.5001,-140.9909 632,-150.991 635.5001,-140.991 628.5001,-140.9909"/>
</g>
<!-- UiButtonsModule -->
<g id="node7" class="node">
<title>UiButtonsModule</title>
<polygon fill="#8dd3c7" stroke="#000000" points="536.6095,-122 533.6095,-126 512.6095,-126 509.6095,-122 419.3905,-122 419.3905,-86 536.6095,-86 536.6095,-122"/>
<text text-anchor="middle" x="478" y="-99.8" font-family="Times,serif" font-size="14.00" fill="#000000">UiButtonsModule</text>
</g>
<!-- UiButtonsModule&#45;&gt;AdminPostsModule -->
<g id="edge6" class="edge">
<title>UiButtonsModule&#45;&gt;AdminPostsModule</title>
<path fill="none" stroke="#000000" d="M478,-122.0091C478,-138.0494 478,-159 478,-159 478,-159 557.5824,-159 557.5824,-159"/>
<polygon fill="#000000" stroke="#000000" points="557.5825,-162.5001 567.5824,-159 557.5824,-155.5001 557.5825,-162.5001"/>
</g>
<!-- UiChipsModule -->
<g id="node8" class="node">
<title>UiChipsModule</title>
<polygon fill="#8dd3c7" stroke="#000000" points="401.219,-122 398.219,-126 377.219,-126 374.219,-122 294.781,-122 294.781,-86 401.219,-86 401.219,-122"/>
<text text-anchor="middle" x="348" y="-99.8" font-family="Times,serif" font-size="14.00" fill="#000000">UiChipsModule</text>
</g>
<!-- UiChipsModule&#45;&gt;AdminPostsModule -->
<g id="edge7" class="edge">
<title>UiChipsModule&#45;&gt;AdminPostsModule</title>
<path fill="none" stroke="#000000" d="M348,-122.2667C348,-140.5552 348,-166 348,-166 348,-166 557.9107,-166 557.9107,-166"/>
<polygon fill="#000000" stroke="#000000" points="557.9108,-169.5001 567.9107,-166 557.9107,-162.5001 557.9108,-169.5001"/>
</g>
<!-- UiConfirmModule -->
<g id="node9" class="node">
<title>UiConfirmModule</title>
<polygon fill="#8dd3c7" stroke="#000000" points="276.486,-122 273.486,-126 252.486,-126 249.486,-122 155.514,-122 155.514,-86 276.486,-86 276.486,-122"/>
<text text-anchor="middle" x="216" y="-99.8" font-family="Times,serif" font-size="14.00" fill="#000000">UiConfirmModule</text>
</g>
<!-- UiConfirmModule&#45;&gt;AdminPostsModule -->
<g id="edge8" class="edge">
<title>UiConfirmModule&#45;&gt;AdminPostsModule</title>
<path fill="none" stroke="#000000" d="M216,-122.1289C216,-142.5724 216,-173 216,-173 216,-173 557.9117,-173 557.9117,-173"/>
<polygon fill="#000000" stroke="#000000" points="557.9117,-176.5001 567.9117,-173 557.9116,-169.5001 557.9117,-176.5001"/>
</g>
<!-- UiLoaderModule -->
<g id="node10" class="node">
<title>UiLoaderModule</title>
<polygon fill="#8dd3c7" stroke="#000000" points="137.6896,-122 134.6896,-126 113.6896,-126 110.6896,-122 24.3104,-122 24.3104,-86 137.6896,-86 137.6896,-122"/>
<text text-anchor="middle" x="81" y="-99.8" font-family="Times,serif" font-size="14.00" fill="#000000">UiLoaderModule</text>
</g>
<!-- UiLoaderModule&#45;&gt;AdminPostsModule -->
<g id="edge9" class="edge">
<title>UiLoaderModule&#45;&gt;AdminPostsModule</title>
<path fill="none" stroke="#000000" d="M81,-122.0109C81,-144.4852 81,-180 81,-180 81,-180 557.9852,-180 557.9852,-180"/>
<polygon fill="#000000" stroke="#000000" points="557.9852,-183.5001 567.9852,-180 557.9852,-176.5001 557.9852,-183.5001"/>
</g>
</g>
</svg>
