<?xml version="1.0" encoding="UTF-8" standalone="no"?>
<!DOCTYPE svg PUBLIC "-//W3C//DTD SVG 1.1//EN"
 "http://www.w3.org/Graphics/SVG/1.1/DTD/svg11.dtd">
<!-- Generated by graphviz version 2.40.1 (20161225.0304)
 -->
<!-- Title: dependencies Pages: 1 -->
<svg width="544pt" height="211pt"
 viewBox="0.00 0.00 544.00 211.00" xmlns="http://www.w3.org/2000/svg" xmlns:xlink="http://www.w3.org/1999/xlink">
<g id="graph0" class="graph" transform="scale(1 1) rotate(0) translate(4 207)">
<title>dependencies</title>
<polygon fill="#ffffff" stroke="transparent" points="-4,4 -4,-207 540,-207 540,4 -4,4"/>
<text text-anchor="start" x="247.0091" y="-42.4" font-family="sans-serif" font-weight="bold" font-size="14.00" fill="#000000">Legend</text>
<polygon fill="#ffffb3" stroke="transparent" points="34,-10 34,-30 54,-30 54,-10 34,-10"/>
<text text-anchor="start" x="57.629" y="-15.4" font-family="sans-serif" font-size="14.00" fill="#000000"> &#160;Declarations</text>
<polygon fill="#8dd3c7" stroke="transparent" points="147,-10 147,-30 167,-30 167,-10 147,-10"/>
<text text-anchor="start" x="170.7251" y="-15.4" font-family="sans-serif" font-size="14.00" fill="#000000"> &#160;Module</text>
<polygon fill="#80b1d3" stroke="transparent" points="233,-10 233,-30 253,-30 253,-10 233,-10"/>
<text text-anchor="start" x="256.7812" y="-15.4" font-family="sans-serif" font-size="14.00" fill="#000000"> &#160;Bootstrap</text>
<polygon fill="#fdb462" stroke="transparent" points="330,-10 330,-30 350,-30 350,-10 330,-10"/>
<text text-anchor="start" x="353.6732" y="-15.4" font-family="sans-serif" font-size="14.00" fill="#000000"> &#160;Providers</text>
<polygon fill="#fb8072" stroke="transparent" points="426,-10 426,-30 446,-30 446,-10 426,-10"/>
<text text-anchor="start" x="449.7258" y="-15.4" font-family="sans-serif" font-size="14.00" fill="#000000"> &#160;Exports</text>
<g id="clust1" class="cluster">
<title>cluster_BlogPostModule</title>
<polygon fill="none" stroke="#000000" stroke-dasharray="1,5" points="8,-70 8,-195 528,-195 528,-70 8,-70"/>
</g>
<g id="clust2" class="cluster">
<title>cluster_BlogPostModule_declarations</title>
<polygon fill="none" stroke="#000000" points="328,-78 328,-130 520,-130 520,-78 328,-78"/>
</g>
<g id="clust4" class="cluster">
<title>cluster_BlogPostModule_imports</title>
<polygon fill="none" stroke="#000000" points="16,-78 16,-130 320,-130 320,-78 16,-78"/>
</g>
<!-- ...fromContainers.containers -->
<g id="node1" class="node">
<title>...fromContainers.containers</title>
<polygon fill="#ffffb3" stroke="#000000" points="511.8946,-122 336.1054,-122 336.1054,-86 511.8946,-86 511.8946,-122"/>
<text text-anchor="middle" x="424" y="-99.8" font-family="Times,serif" font-size="14.00" fill="#000000">...fromContainers.containers</text>
</g>
<!-- BlogPostModule -->
<g id="node2" class="node">
<title>BlogPostModule</title>
<polygon fill="#8dd3c7" stroke="#000000" points="289.3948,-187 286.3948,-191 265.3948,-191 262.3948,-187 178.6052,-187 178.6052,-151 289.3948,-151 289.3948,-187"/>
<text text-anchor="middle" x="234" y="-164.8" font-family="Times,serif" font-size="14.00" fill="#000000">BlogPostModule</text>
</g>
<!-- ...fromContainers.containers&#45;&gt;BlogPostModule -->
<g id="edge1" class="edge">
<title>...fromContainers.containers&#45;&gt;BlogPostModule</title>
<path fill="none" stroke="#000000" d="M424,-122.1061C424,-141.3391 424,-169 424,-169 424,-169 299.4666,-169 299.4666,-169"/>
<polygon fill="#000000" stroke="#000000" points="299.4667,-165.5001 289.4666,-169 299.4666,-172.5001 299.4667,-165.5001"/>
</g>
<!-- BlogPostRoutingModule -->
<g id="node3" class="node">
<title>BlogPostRoutingModule</title>
<polygon fill="#8dd3c7" stroke="#000000" points="312.0126,-122 309.0126,-126 288.0126,-126 285.0126,-122 155.9874,-122 155.9874,-86 312.0126,-86 312.0126,-122"/>
<text text-anchor="middle" x="234" y="-99.8" font-family="Times,serif" font-size="14.00" fill="#000000">BlogPostRoutingModule</text>
</g>
<!-- BlogPostRoutingModule&#45;&gt;BlogPostModule -->
<g id="edge2" class="edge">
<title>BlogPostRoutingModule&#45;&gt;BlogPostModule</title>
<path fill="none" stroke="#000000" d="M234,-122.1061C234,-122.1061 234,-140.991 234,-140.991"/>
<polygon fill="#000000" stroke="#000000" points="230.5001,-140.9909 234,-150.991 237.5001,-140.991 230.5001,-140.9909"/>
</g>
<!-- UiLoaderModule -->
<g id="node4" class="node">
<title>UiLoaderModule</title>
<polygon fill="#8dd3c7" stroke="#000000" points="137.6896,-122 134.6896,-126 113.6896,-126 110.6896,-122 24.3104,-122 24.3104,-86 137.6896,-86 137.6896,-122"/>
<text text-anchor="middle" x="81" y="-99.8" font-family="Times,serif" font-size="14.00" fill="#000000">UiLoaderModule</text>
</g>
<!-- UiLoaderModule&#45;&gt;BlogPostModule -->
<g id="edge3" class="edge">
<title>UiLoaderModule&#45;&gt;BlogPostModule</title>
<path fill="none" stroke="#000000" d="M81,-122.1061C81,-141.3391 81,-169 81,-169 81,-169 168.3307,-169 168.3307,-169"/>
<polygon fill="#000000" stroke="#000000" points="168.3307,-172.5001 178.3307,-169 168.3306,-165.5001 168.3307,-172.5001"/>
</g>
</g>
</svg>
