<?xml version="1.0" encoding="UTF-8" standalone="no"?>
<!DOCTYPE svg PUBLIC "-//W3C//DTD SVG 1.1//EN"
 "http://www.w3.org/Graphics/SVG/1.1/DTD/svg11.dtd">
<!-- Generated by graphviz version 2.40.1 (20161225.0304)
 -->
<!-- Title: dependencies Pages: 1 -->
<svg width="504pt" height="211pt"
 viewBox="0.00 0.00 504.00 211.00" xmlns="http://www.w3.org/2000/svg" xmlns:xlink="http://www.w3.org/1999/xlink">
<g id="graph0" class="graph" transform="scale(1 1) rotate(0) translate(4 207)">
<title>dependencies</title>
<polygon fill="#ffffff" stroke="transparent" points="-4,4 -4,-207 500,-207 500,4 -4,4"/>
<text text-anchor="start" x="227.0091" y="-42.4" font-family="sans-serif" font-weight="bold" font-size="14.00" fill="#000000">Legend</text>
<polygon fill="#ffffb3" stroke="transparent" points="14,-10 14,-30 34,-30 34,-10 14,-10"/>
<text text-anchor="start" x="37.629" y="-15.4" font-family="sans-serif" font-size="14.00" fill="#000000"> &#160;Declarations</text>
<polygon fill="#8dd3c7" stroke="transparent" points="127,-10 127,-30 147,-30 147,-10 127,-10"/>
<text text-anchor="start" x="150.7251" y="-15.4" font-family="sans-serif" font-size="14.00" fill="#000000"> &#160;Module</text>
<polygon fill="#80b1d3" stroke="transparent" points="213,-10 213,-30 233,-30 233,-10 213,-10"/>
<text text-anchor="start" x="236.7812" y="-15.4" font-family="sans-serif" font-size="14.00" fill="#000000"> &#160;Bootstrap</text>
<polygon fill="#fdb462" stroke="transparent" points="310,-10 310,-30 330,-30 330,-10 310,-10"/>
<text text-anchor="start" x="333.6732" y="-15.4" font-family="sans-serif" font-size="14.00" fill="#000000"> &#160;Providers</text>
<polygon fill="#fb8072" stroke="transparent" points="406,-10 406,-30 426,-30 426,-10 406,-10"/>
<text text-anchor="start" x="429.7258" y="-15.4" font-family="sans-serif" font-size="14.00" fill="#000000"> &#160;Exports</text>
<g id="clust1" class="cluster">
<title>cluster_BlogContactModule</title>
<polygon fill="none" stroke="#000000" stroke-dasharray="1,5" points="44,-70 44,-195 452,-195 452,-70 44,-70"/>
</g>
<g id="clust2" class="cluster">
<title>cluster_BlogContactModule_declarations</title>
<polygon fill="none" stroke="#000000" points="252,-78 252,-130 444,-130 444,-78 252,-78"/>
</g>
<g id="clust4" class="cluster">
<title>cluster_BlogContactModule_imports</title>
<polygon fill="none" stroke="#000000" points="52,-78 52,-130 244,-130 244,-78 52,-78"/>
</g>
<!-- ...fromContainers.containers -->
<g id="node1" class="node">
<title>...fromContainers.containers</title>
<polygon fill="#ffffb3" stroke="#000000" points="435.8946,-122 260.1054,-122 260.1054,-86 435.8946,-86 435.8946,-122"/>
<text text-anchor="middle" x="348" y="-99.8" font-family="Times,serif" font-size="14.00" fill="#000000">...fromContainers.containers</text>
</g>
<!-- BlogContactModule -->
<g id="node2" class="node">
<title>BlogContactModule</title>
<polygon fill="#8dd3c7" stroke="#000000" points="313.3244,-187 310.3244,-191 289.3244,-191 286.3244,-187 182.6756,-187 182.6756,-151 313.3244,-151 313.3244,-187"/>
<text text-anchor="middle" x="248" y="-164.8" font-family="Times,serif" font-size="14.00" fill="#000000">BlogContactModule</text>
</g>
<!-- ...fromContainers.containers&#45;&gt;BlogContactModule -->
<g id="edge1" class="edge">
<title>...fromContainers.containers&#45;&gt;BlogContactModule</title>
<path fill="none" stroke="#000000" d="M286.7325,-122.1061C286.7325,-122.1061 286.7325,-140.991 286.7325,-140.991"/>
<polygon fill="#000000" stroke="#000000" points="283.2325,-140.9909 286.7325,-150.991 290.2325,-140.991 283.2325,-140.9909"/>
</g>
<!-- BlogContactRoutingModule -->
<g id="node3" class="node">
<title>BlogContactRoutingModule</title>
<polygon fill="#8dd3c7" stroke="#000000" points="235.9424,-122 232.9424,-126 211.9424,-126 208.9424,-122 60.0576,-122 60.0576,-86 235.9424,-86 235.9424,-122"/>
<text text-anchor="middle" x="148" y="-99.8" font-family="Times,serif" font-size="14.00" fill="#000000">BlogContactRoutingModule</text>
</g>
<!-- BlogContactRoutingModule&#45;&gt;BlogContactModule -->
<g id="edge2" class="edge">
<title>BlogContactRoutingModule&#45;&gt;BlogContactModule</title>
<path fill="none" stroke="#000000" d="M209.2795,-122.1061C209.2795,-122.1061 209.2795,-140.991 209.2795,-140.991"/>
<polygon fill="#000000" stroke="#000000" points="205.7795,-140.9909 209.2795,-150.991 212.7795,-140.991 205.7795,-140.9909"/>
</g>
</g>
</svg>
