<?xml version="1.0" encoding="UTF-8" standalone="no"?>
<!DOCTYPE svg PUBLIC "-//W3C//DTD SVG 1.1//EN"
 "http://www.w3.org/Graphics/SVG/1.1/DTD/svg11.dtd">
<!-- Generated by graphviz version 2.40.1 (20161225.0304)
 -->
<!-- Title: dependencies Pages: 1 -->
<svg width="504pt" height="211pt"
 viewBox="0.00 0.00 504.00 211.00" xmlns="http://www.w3.org/2000/svg" xmlns:xlink="http://www.w3.org/1999/xlink">
<g id="graph0" class="graph" transform="scale(1 1) rotate(0) translate(4 207)">
<title>dependencies</title>
<polygon fill="#ffffff" stroke="transparent" points="-4,4 -4,-207 500,-207 500,4 -4,4"/>
<text text-anchor="start" x="227.0091" y="-42.4" font-family="sans-serif" font-weight="bold" font-size="14.00" fill="#000000">Legend</text>
<polygon fill="#ffffb3" stroke="transparent" points="14,-10 14,-30 34,-30 34,-10 14,-10"/>
<text text-anchor="start" x="37.629" y="-15.4" font-family="sans-serif" font-size="14.00" fill="#000000"> &#160;Declarations</text>
<polygon fill="#8dd3c7" stroke="transparent" points="127,-10 127,-30 147,-30 147,-10 127,-10"/>
<text text-anchor="start" x="150.7251" y="-15.4" font-family="sans-serif" font-size="14.00" fill="#000000"> &#160;Module</text>
<polygon fill="#80b1d3" stroke="transparent" points="213,-10 213,-30 233,-30 233,-10 213,-10"/>
<text text-anchor="start" x="236.7812" y="-15.4" font-family="sans-serif" font-size="14.00" fill="#000000"> &#160;Bootstrap</text>
<polygon fill="#fdb462" stroke="transparent" points="310,-10 310,-30 330,-30 330,-10 310,-10"/>
<text text-anchor="start" x="333.6732" y="-15.4" font-family="sans-serif" font-size="14.00" fill="#000000"> &#160;Providers</text>
<polygon fill="#fb8072" stroke="transparent" points="406,-10 406,-30 426,-30 426,-10 406,-10"/>
<text text-anchor="start" x="429.7258" y="-15.4" font-family="sans-serif" font-size="14.00" fill="#000000"> &#160;Exports</text>
<g id="clust1" class="cluster">
<title>cluster_AdminMediaModule</title>
<polygon fill="none" stroke="#000000" stroke-dasharray="1,5" points="42,-70 42,-195 454,-195 454,-70 42,-70"/>
</g>
<g id="clust2" class="cluster">
<title>cluster_AdminMediaModule_declarations</title>
<polygon fill="none" stroke="#000000" points="254,-78 254,-130 446,-130 446,-78 254,-78"/>
</g>
<g id="clust4" class="cluster">
<title>cluster_AdminMediaModule_imports</title>
<polygon fill="none" stroke="#000000" points="50,-78 50,-130 246,-130 246,-78 50,-78"/>
</g>
<!-- ...fromContainers.containers -->
<g id="node1" class="node">
<title>...fromContainers.containers</title>
<polygon fill="#ffffb3" stroke="#000000" points="437.8946,-122 262.1054,-122 262.1054,-86 437.8946,-86 437.8946,-122"/>
<text text-anchor="middle" x="350" y="-99.8" font-family="Times,serif" font-size="14.00" fill="#000000">...fromContainers.containers</text>
</g>
<!-- AdminMediaModule -->
<g id="node2" class="node">
<title>AdminMediaModule</title>
<polygon fill="#8dd3c7" stroke="#000000" points="316.2022,-187 313.2022,-191 292.2022,-191 289.2022,-187 181.7978,-187 181.7978,-151 316.2022,-151 316.2022,-187"/>
<text text-anchor="middle" x="249" y="-164.8" font-family="Times,serif" font-size="14.00" fill="#000000">AdminMediaModule</text>
</g>
<!-- ...fromContainers.containers&#45;&gt;AdminMediaModule -->
<g id="edge1" class="edge">
<title>...fromContainers.containers&#45;&gt;AdminMediaModule</title>
<path fill="none" stroke="#000000" d="M289.202,-122.1061C289.202,-122.1061 289.202,-140.991 289.202,-140.991"/>
<polygon fill="#000000" stroke="#000000" points="285.702,-140.9909 289.202,-150.991 292.702,-140.991 285.702,-140.9909"/>
</g>
<!-- AdminMediaRoutingModule -->
<g id="node3" class="node">
<title>AdminMediaRoutingModule</title>
<polygon fill="#8dd3c7" stroke="#000000" points="237.8201,-122 234.8201,-126 213.8201,-126 210.8201,-122 58.1799,-122 58.1799,-86 237.8201,-86 237.8201,-122"/>
<text text-anchor="middle" x="148" y="-99.8" font-family="Times,serif" font-size="14.00" fill="#000000">AdminMediaRoutingModule</text>
</g>
<!-- AdminMediaRoutingModule&#45;&gt;AdminMediaModule -->
<g id="edge2" class="edge">
<title>AdminMediaRoutingModule&#45;&gt;AdminMediaModule</title>
<path fill="none" stroke="#000000" d="M209.7795,-122.1061C209.7795,-122.1061 209.7795,-140.991 209.7795,-140.991"/>
<polygon fill="#000000" stroke="#000000" points="206.2795,-140.9909 209.7795,-150.991 213.2795,-140.991 206.2795,-140.9909"/>
</g>
</g>
</svg>
