<?xml version="1.0" encoding="UTF-8" standalone="no"?>
<!DOCTYPE svg PUBLIC "-//W3C//DTD SVG 1.1//EN"
 "http://www.w3.org/Graphics/SVG/1.1/DTD/svg11.dtd">
<!-- Generated by graphviz version 2.40.1 (20161225.0304)
 -->
<!-- Title: dependencies Pages: 1 -->
<svg width="1422pt" height="211pt"
 viewBox="0.00 0.00 1422.00 211.00" xmlns="http://www.w3.org/2000/svg" xmlns:xlink="http://www.w3.org/1999/xlink">
<g id="graph0" class="graph" transform="scale(1 1) rotate(0) translate(4 207)">
<title>dependencies</title>
<polygon fill="#ffffff" stroke="transparent" points="-4,4 -4,-207 1418,-207 1418,4 -4,4"/>
<text text-anchor="start" x="686.0091" y="-42.4" font-family="sans-serif" font-weight="bold" font-size="14.00" fill="#000000">Legend</text>
<polygon fill="#ffffb3" stroke="transparent" points="473,-10 473,-30 493,-30 493,-10 473,-10"/>
<text text-anchor="start" x="496.629" y="-15.4" font-family="sans-serif" font-size="14.00" fill="#000000"> &#160;Declarations</text>
<polygon fill="#8dd3c7" stroke="transparent" points="586,-10 586,-30 606,-30 606,-10 586,-10"/>
<text text-anchor="start" x="609.7251" y="-15.4" font-family="sans-serif" font-size="14.00" fill="#000000"> &#160;Module</text>
<polygon fill="#80b1d3" stroke="transparent" points="672,-10 672,-30 692,-30 692,-10 672,-10"/>
<text text-anchor="start" x="695.7812" y="-15.4" font-family="sans-serif" font-size="14.00" fill="#000000"> &#160;Bootstrap</text>
<polygon fill="#fdb462" stroke="transparent" points="769,-10 769,-30 789,-30 789,-10 769,-10"/>
<text text-anchor="start" x="792.6732" y="-15.4" font-family="sans-serif" font-size="14.00" fill="#000000"> &#160;Providers</text>
<polygon fill="#fb8072" stroke="transparent" points="865,-10 865,-30 885,-30 885,-10 865,-10"/>
<text text-anchor="start" x="888.7258" y="-15.4" font-family="sans-serif" font-size="14.00" fill="#000000"> &#160;Exports</text>
<g id="clust1" class="cluster">
<title>cluster_AdminUsersModule</title>
<polygon fill="none" stroke="#000000" stroke-dasharray="1,5" points="8,-70 8,-195 1406,-195 1406,-70 8,-70"/>
</g>
<g id="clust2" class="cluster">
<title>cluster_AdminUsersModule_declarations</title>
<polygon fill="none" stroke="#000000" points="1048,-78 1048,-130 1398,-130 1398,-78 1048,-78"/>
</g>
<g id="clust5" class="cluster">
<title>cluster_AdminUsersModule_imports</title>
<polygon fill="none" stroke="#000000" points="16,-78 16,-130 1040,-130 1040,-78 16,-78"/>
</g>
<!-- ...fromContainers.containers -->
<g id="node1" class="node">
<title>...fromContainers.containers</title>
<polygon fill="#ffffb3" stroke="#000000" points="1389.8946,-122 1214.1054,-122 1214.1054,-86 1389.8946,-86 1389.8946,-122"/>
<text text-anchor="middle" x="1302" y="-99.8" font-family="Times,serif" font-size="14.00" fill="#000000">...fromContainers.containers</text>
</g>
<!-- AdminUsersModule -->
<g id="node3" class="node">
<title>AdminUsersModule</title>
<polygon fill="#8dd3c7" stroke="#000000" points="717.309,-187 714.309,-191 693.309,-191 690.309,-187 586.691,-187 586.691,-151 717.309,-151 717.309,-187"/>
<text text-anchor="middle" x="652" y="-164.8" font-family="Times,serif" font-size="14.00" fill="#000000">AdminUsersModule</text>
</g>
<!-- ...fromContainers.containers&#45;&gt;AdminUsersModule -->
<g id="edge1" class="edge">
<title>...fromContainers.containers&#45;&gt;AdminUsersModule</title>
<path fill="none" stroke="#000000" d="M1302,-122.0109C1302,-144.4852 1302,-180 1302,-180 1302,-180 727.3006,-180 727.3006,-180"/>
<polygon fill="#000000" stroke="#000000" points="727.3006,-176.5001 717.3006,-180 727.3005,-183.5001 727.3006,-176.5001"/>
</g>
<!-- ...fromModals.modals -->
<g id="node2" class="node">
<title>...fromModals.modals</title>
<polygon fill="#ffffb3" stroke="#000000" points="1195.647,-122 1056.353,-122 1056.353,-86 1195.647,-86 1195.647,-122"/>
<text text-anchor="middle" x="1126" y="-99.8" font-family="Times,serif" font-size="14.00" fill="#000000">...fromModals.modals</text>
</g>
<!-- ...fromModals.modals&#45;&gt;AdminUsersModule -->
<g id="edge2" class="edge">
<title>...fromModals.modals&#45;&gt;AdminUsersModule</title>
<path fill="none" stroke="#000000" d="M1126,-122.1289C1126,-142.5724 1126,-173 1126,-173 1126,-173 727.41,-173 727.41,-173"/>
<polygon fill="#000000" stroke="#000000" points="727.41,-169.5001 717.41,-173 727.41,-176.5001 727.41,-169.5001"/>
</g>
<!-- AdminUsersRoutingModule -->
<g id="node4" class="node">
<title>AdminUsersRoutingModule</title>
<polygon fill="#8dd3c7" stroke="#000000" points="1031.9269,-122 1028.9269,-126 1007.9269,-126 1004.9269,-122 856.0731,-122 856.0731,-86 1031.9269,-86 1031.9269,-122"/>
<text text-anchor="middle" x="944" y="-99.8" font-family="Times,serif" font-size="14.00" fill="#000000">AdminUsersRoutingModule</text>
</g>
<!-- AdminUsersRoutingModule&#45;&gt;AdminUsersModule -->
<g id="edge3" class="edge">
<title>AdminUsersRoutingModule&#45;&gt;AdminUsersModule</title>
<path fill="none" stroke="#000000" d="M944,-122.2667C944,-140.5552 944,-166 944,-166 944,-166 727.1671,-166 727.1671,-166"/>
<polygon fill="#000000" stroke="#000000" points="727.1671,-162.5001 717.1671,-166 727.167,-169.5001 727.1671,-162.5001"/>
</g>
<!-- IconsModule -->
<g id="node5" class="node">
<title>IconsModule</title>
<polygon fill="#8dd3c7" stroke="#000000" points="837.8697,-122 834.8697,-126 813.8697,-126 810.8697,-122 748.1303,-122 748.1303,-86 837.8697,-86 837.8697,-122"/>
<text text-anchor="middle" x="793" y="-99.8" font-family="Times,serif" font-size="14.00" fill="#000000">IconsModule</text>
</g>
<!-- IconsModule&#45;&gt;AdminUsersModule -->
<g id="edge4" class="edge">
<title>IconsModule&#45;&gt;AdminUsersModule</title>
<path fill="none" stroke="#000000" d="M793,-122.0091C793,-138.0494 793,-159 793,-159 793,-159 727.5466,-159 727.5466,-159"/>
<polygon fill="#000000" stroke="#000000" points="727.5466,-155.5001 717.5466,-159 727.5466,-162.5001 727.5466,-155.5001"/>
</g>
<!-- UiButtonSpinnerModule -->
<g id="node6" class="node">
<title>UiButtonSpinnerModule</title>
<polygon fill="#8dd3c7" stroke="#000000" points="729.7133,-122 726.7133,-126 705.7133,-126 702.7133,-122 574.2867,-122 574.2867,-86 729.7133,-86 729.7133,-122"/>
<text text-anchor="middle" x="652" y="-99.8" font-family="Times,serif" font-size="14.00" fill="#000000">UiButtonSpinnerModule</text>
</g>
<!-- UiButtonSpinnerModule&#45;&gt;AdminUsersModule -->
<g id="edge5" class="edge">
<title>UiButtonSpinnerModule&#45;&gt;AdminUsersModule</title>
<path fill="none" stroke="#000000" d="M652,-122.1061C652,-122.1061 652,-140.991 652,-140.991"/>
<polygon fill="#000000" stroke="#000000" points="648.5001,-140.9909 652,-150.991 655.5001,-140.991 648.5001,-140.9909"/>
</g>
<!-- UiButtonsModule -->
<g id="node7" class="node">
<title>UiButtonsModule</title>
<polygon fill="#8dd3c7" stroke="#000000" points="556.6095,-122 553.6095,-126 532.6095,-126 529.6095,-122 439.3905,-122 439.3905,-86 556.6095,-86 556.6095,-122"/>
<text text-anchor="middle" x="498" y="-99.8" font-family="Times,serif" font-size="14.00" fill="#000000">UiButtonsModule</text>
</g>
<!-- UiButtonsModule&#45;&gt;AdminUsersModule -->
<g id="edge6" class="edge">
<title>UiButtonsModule&#45;&gt;AdminUsersModule</title>
<path fill="none" stroke="#000000" d="M498,-122.0091C498,-138.0494 498,-159 498,-159 498,-159 576.6901,-159 576.6901,-159"/>
<polygon fill="#000000" stroke="#000000" points="576.6902,-162.5001 586.6901,-159 576.6901,-155.5001 576.6902,-162.5001"/>
</g>
<!-- UiConfirmModule -->
<g id="node8" class="node">
<title>UiConfirmModule</title>
<polygon fill="#8dd3c7" stroke="#000000" points="421.486,-122 418.486,-126 397.486,-126 394.486,-122 300.514,-122 300.514,-86 421.486,-86 421.486,-122"/>
<text text-anchor="middle" x="361" y="-99.8" font-family="Times,serif" font-size="14.00" fill="#000000">UiConfirmModule</text>
</g>
<!-- UiConfirmModule&#45;&gt;AdminUsersModule -->
<g id="edge7" class="edge">
<title>UiConfirmModule&#45;&gt;AdminUsersModule</title>
<path fill="none" stroke="#000000" d="M361,-122.2667C361,-140.5552 361,-166 361,-166 361,-166 576.6939,-166 576.6939,-166"/>
<polygon fill="#000000" stroke="#000000" points="576.694,-169.5001 586.6939,-166 576.6939,-162.5001 576.694,-169.5001"/>
</g>
<!-- UiLoaderModule -->
<g id="node9" class="node">
<title>UiLoaderModule</title>
<polygon fill="#8dd3c7" stroke="#000000" points="282.6896,-122 279.6896,-126 258.6896,-126 255.6896,-122 169.3104,-122 169.3104,-86 282.6896,-86 282.6896,-122"/>
<text text-anchor="middle" x="226" y="-99.8" font-family="Times,serif" font-size="14.00" fill="#000000">UiLoaderModule</text>
</g>
<!-- UiLoaderModule&#45;&gt;AdminUsersModule -->
<g id="edge8" class="edge">
<title>UiLoaderModule&#45;&gt;AdminUsersModule</title>
<path fill="none" stroke="#000000" d="M226,-122.1289C226,-142.5724 226,-173 226,-173 226,-173 576.836,-173 576.836,-173"/>
<polygon fill="#000000" stroke="#000000" points="576.8361,-176.5001 586.836,-173 576.836,-169.5001 576.8361,-176.5001"/>
</g>
<!-- UiPasswordModule -->
<g id="node10" class="node">
<title>UiPasswordModule</title>
<polygon fill="#8dd3c7" stroke="#000000" points="151.7008,-122 148.7008,-126 127.7008,-126 124.7008,-122 24.2992,-122 24.2992,-86 151.7008,-86 151.7008,-122"/>
<text text-anchor="middle" x="88" y="-99.8" font-family="Times,serif" font-size="14.00" fill="#000000">UiPasswordModule</text>
</g>
<!-- UiPasswordModule&#45;&gt;AdminUsersModule -->
<g id="edge9" class="edge">
<title>UiPasswordModule&#45;&gt;AdminUsersModule</title>
<path fill="none" stroke="#000000" d="M88,-122.0109C88,-144.4852 88,-180 88,-180 88,-180 576.7511,-180 576.7511,-180"/>
<polygon fill="#000000" stroke="#000000" points="576.7511,-183.5001 586.7511,-180 576.751,-176.5001 576.7511,-183.5001"/>
</g>
</g>
</svg>
