<?xml version="1.0" encoding="UTF-8" standalone="no"?>
<!DOCTYPE svg PUBLIC "-//W3C//DTD SVG 1.1//EN"
 "http://www.w3.org/Graphics/SVG/1.1/DTD/svg11.dtd">
<!-- Generated by graphviz version 2.40.1 (20161225.0304)
 -->
<!-- Title: dependencies Pages: 1 -->
<svg width="780pt" height="284pt"
 viewBox="0.00 0.00 780.00 284.00" xmlns="http://www.w3.org/2000/svg" xmlns:xlink="http://www.w3.org/1999/xlink">
<g id="graph0" class="graph" transform="scale(1 1) rotate(0) translate(4 280)">
<title>dependencies</title>
<polygon fill="#ffffff" stroke="transparent" points="-4,4 -4,-280 776,-280 776,4 -4,4"/>
<text text-anchor="start" x="365.0091" y="-42.4" font-family="sans-serif" font-weight="bold" font-size="14.00" fill="#000000">Legend</text>
<polygon fill="#ffffb3" stroke="transparent" points="152,-10 152,-30 172,-30 172,-10 152,-10"/>
<text text-anchor="start" x="175.629" y="-15.4" font-family="sans-serif" font-size="14.00" fill="#000000"> &#160;Declarations</text>
<polygon fill="#8dd3c7" stroke="transparent" points="265,-10 265,-30 285,-30 285,-10 265,-10"/>
<text text-anchor="start" x="288.7251" y="-15.4" font-family="sans-serif" font-size="14.00" fill="#000000"> &#160;Module</text>
<polygon fill="#80b1d3" stroke="transparent" points="351,-10 351,-30 371,-30 371,-10 351,-10"/>
<text text-anchor="start" x="374.7812" y="-15.4" font-family="sans-serif" font-size="14.00" fill="#000000"> &#160;Bootstrap</text>
<polygon fill="#fdb462" stroke="transparent" points="448,-10 448,-30 468,-30 468,-10 448,-10"/>
<text text-anchor="start" x="471.6732" y="-15.4" font-family="sans-serif" font-size="14.00" fill="#000000"> &#160;Providers</text>
<polygon fill="#fb8072" stroke="transparent" points="544,-10 544,-30 564,-30 564,-10 544,-10"/>
<text text-anchor="start" x="567.7258" y="-15.4" font-family="sans-serif" font-size="14.00" fill="#000000"> &#160;Exports</text>
<g id="clust1" class="cluster">
<title>cluster_AppModule</title>
<polygon fill="none" stroke="#000000" stroke-dasharray="1,5" points="8,-70 8,-268 764,-268 764,-70 8,-70"/>
</g>
<g id="clust2" class="cluster">
<title>cluster_AppModule_declarations</title>
<polygon fill="none" stroke="#000000" points="634,-78 634,-130 756,-130 756,-78 634,-78"/>
</g>
<g id="clust4" class="cluster">
<title>cluster_AppModule_imports</title>
<polygon fill="none" stroke="#000000" points="16,-78 16,-130 626,-130 626,-78 16,-78"/>
</g>
<g id="clust6" class="cluster">
<title>cluster_AppModule_bootstrap</title>
<polygon fill="none" stroke="#000000" points="325,-208 325,-260 449,-260 449,-208 325,-208"/>
</g>
<!-- AppComponent -->
<g id="node1" class="node">
<title>AppComponent</title>
<polygon fill="#ffffb3" stroke="#000000" points="747.9399,-122 642.0601,-122 642.0601,-86 747.9399,-86 747.9399,-122"/>
<text text-anchor="middle" x="695" y="-99.8" font-family="Times,serif" font-size="14.00" fill="#000000">AppComponent</text>
</g>
<!-- AppModule -->
<g id="node2" class="node">
<title>AppModule</title>
<polygon fill="#8dd3c7" stroke="#000000" points="428.6571,-187 425.6571,-191 404.6571,-191 401.6571,-187 345.3429,-187 345.3429,-151 428.6571,-151 428.6571,-187"/>
<text text-anchor="middle" x="387" y="-164.8" font-family="Times,serif" font-size="14.00" fill="#000000">AppModule</text>
</g>
<!-- AppComponent&#45;&gt;AppModule -->
<g id="edge1" class="edge">
<title>AppComponent&#45;&gt;AppModule</title>
<path fill="none" stroke="#000000" d="M695,-122.2843C695,-143.3211 695,-175 695,-175 695,-175 438.8588,-175 438.8588,-175"/>
<polygon fill="#000000" stroke="#000000" points="438.8588,-171.5001 428.8588,-175 438.8588,-178.5001 438.8588,-171.5001"/>
</g>
<!-- AppComponent  -->
<g id="node7" class="node">
<title>AppComponent </title>
<polygon fill="#80b1d3" stroke="#000000" points="441.439,-252 332.561,-252 332.561,-216 441.439,-216 441.439,-252"/>
<text text-anchor="middle" x="387" y="-229.8" font-family="Times,serif" font-size="14.00" fill="#000000">AppComponent </text>
</g>
<!-- AppModule&#45;&gt;AppComponent  -->
<g id="edge6" class="edge">
<title>AppModule&#45;&gt;AppComponent </title>
<path fill="none" stroke="#000000" stroke-dasharray="1,5" d="M387,-187.1061C387,-187.1061 387,-205.991 387,-205.991"/>
<polygon fill="#000000" stroke="#000000" points="383.5001,-205.9909 387,-215.991 390.5001,-205.991 383.5001,-205.9909"/>
</g>
<!-- AppRoutingModule -->
<g id="node3" class="node">
<title>AppRoutingModule</title>
<polygon fill="#8dd3c7" stroke="#000000" points="618.2744,-122 615.2744,-126 594.2744,-126 591.2744,-122 489.7256,-122 489.7256,-86 618.2744,-86 618.2744,-122"/>
<text text-anchor="middle" x="554" y="-99.8" font-family="Times,serif" font-size="14.00" fill="#000000">AppRoutingModule</text>
</g>
<!-- AppRoutingModule&#45;&gt;AppModule -->
<g id="edge2" class="edge">
<title>AppRoutingModule&#45;&gt;AppModule</title>
<path fill="none" stroke="#000000" d="M554,-122.0225C554,-139.3734 554,-163 554,-163 554,-163 438.7104,-163 438.7104,-163"/>
<polygon fill="#000000" stroke="#000000" points="438.7104,-159.5001 428.7104,-163 438.7103,-166.5001 438.7104,-159.5001"/>
</g>
<!-- CoreAuthenticationModule -->
<g id="node4" class="node">
<title>CoreAuthenticationModule</title>
<polygon fill="#8dd3c7" stroke="#000000" points="471.965,-122 468.965,-126 447.965,-126 444.965,-122 302.035,-122 302.035,-86 471.965,-86 471.965,-122"/>
<text text-anchor="middle" x="387" y="-99.8" font-family="Times,serif" font-size="14.00" fill="#000000">CoreAuthenticationModule</text>
</g>
<!-- CoreAuthenticationModule&#45;&gt;AppModule -->
<g id="edge3" class="edge">
<title>CoreAuthenticationModule&#45;&gt;AppModule</title>
<path fill="none" stroke="#000000" d="M387,-122.1061C387,-122.1061 387,-140.991 387,-140.991"/>
<polygon fill="#000000" stroke="#000000" points="383.5001,-140.9909 387,-150.991 390.5001,-140.991 383.5001,-140.9909"/>
</g>
<!-- CorePostsdModule -->
<g id="node5" class="node">
<title>CorePostsdModule</title>
<polygon fill="#8dd3c7" stroke="#000000" points="283.8244,-122 280.8244,-126 259.8244,-126 256.8244,-122 160.1756,-122 160.1756,-86 283.8244,-86 283.8244,-122"/>
<text text-anchor="middle" x="222" y="-99.8" font-family="Times,serif" font-size="14.00" fill="#000000">CorePostsdModule</text>
</g>
<!-- CorePostsdModule&#45;&gt;AppModule -->
<g id="edge4" class="edge">
<title>CorePostsdModule&#45;&gt;AppModule</title>
<path fill="none" stroke="#000000" d="M222,-122.0225C222,-139.3734 222,-163 222,-163 222,-163 334.9366,-163 334.9366,-163"/>
<polygon fill="#000000" stroke="#000000" points="334.9366,-166.5001 344.9366,-163 334.9366,-159.5001 334.9366,-166.5001"/>
</g>
<!-- CoreUsersModule -->
<g id="node6" class="node">
<title>CoreUsersModule</title>
<polygon fill="#8dd3c7" stroke="#000000" points="142.1332,-122 139.1332,-126 118.1332,-126 115.1332,-122 23.8668,-122 23.8668,-86 142.1332,-86 142.1332,-122"/>
<text text-anchor="middle" x="83" y="-99.8" font-family="Times,serif" font-size="14.00" fill="#000000">CoreUsersModule</text>
</g>
<!-- CoreUsersModule&#45;&gt;AppModule -->
<g id="edge5" class="edge">
<title>CoreUsersModule&#45;&gt;AppModule</title>
<path fill="none" stroke="#000000" d="M83,-122.2843C83,-143.3211 83,-175 83,-175 83,-175 335.0493,-175 335.0493,-175"/>
<polygon fill="#000000" stroke="#000000" points="335.0493,-178.5001 345.0493,-175 335.0492,-171.5001 335.0493,-178.5001"/>
</g>
</g>
</svg>
