<?xml version="1.0" encoding="UTF-8" standalone="no"?>
<!DOCTYPE svg PUBLIC "-//W3C//DTD SVG 1.1//EN"
 "http://www.w3.org/Graphics/SVG/1.1/DTD/svg11.dtd">
<!-- Generated by graphviz version 2.40.1 (20161225.0304)
 -->
<!-- Title: dependencies Pages: 1 -->
<svg width="932pt" height="211pt"
 viewBox="0.00 0.00 932.00 211.00" xmlns="http://www.w3.org/2000/svg" xmlns:xlink="http://www.w3.org/1999/xlink">
<g id="graph0" class="graph" transform="scale(1 1) rotate(0) translate(4 207)">
<title>dependencies</title>
<polygon fill="#ffffff" stroke="transparent" points="-4,4 -4,-207 928,-207 928,4 -4,4"/>
<text text-anchor="start" x="441.0091" y="-42.4" font-family="sans-serif" font-weight="bold" font-size="14.00" fill="#000000">Legend</text>
<polygon fill="#ffffb3" stroke="transparent" points="228,-10 228,-30 248,-30 248,-10 228,-10"/>
<text text-anchor="start" x="251.629" y="-15.4" font-family="sans-serif" font-size="14.00" fill="#000000"> &#160;Declarations</text>
<polygon fill="#8dd3c7" stroke="transparent" points="341,-10 341,-30 361,-30 361,-10 341,-10"/>
<text text-anchor="start" x="364.7251" y="-15.4" font-family="sans-serif" font-size="14.00" fill="#000000"> &#160;Module</text>
<polygon fill="#80b1d3" stroke="transparent" points="427,-10 427,-30 447,-30 447,-10 427,-10"/>
<text text-anchor="start" x="450.7812" y="-15.4" font-family="sans-serif" font-size="14.00" fill="#000000"> &#160;Bootstrap</text>
<polygon fill="#fdb462" stroke="transparent" points="524,-10 524,-30 544,-30 544,-10 524,-10"/>
<text text-anchor="start" x="547.6732" y="-15.4" font-family="sans-serif" font-size="14.00" fill="#000000"> &#160;Providers</text>
<polygon fill="#fb8072" stroke="transparent" points="620,-10 620,-30 640,-30 640,-10 620,-10"/>
<text text-anchor="start" x="643.7258" y="-15.4" font-family="sans-serif" font-size="14.00" fill="#000000"> &#160;Exports</text>
<g id="clust1" class="cluster">
<title>cluster_BlogHomeModule</title>
<polygon fill="none" stroke="#000000" stroke-dasharray="1,5" points="8,-70 8,-195 916,-195 916,-70 8,-70"/>
</g>
<g id="clust2" class="cluster">
<title>cluster_BlogHomeModule_declarations</title>
<polygon fill="none" stroke="#000000" points="716,-78 716,-130 908,-130 908,-78 716,-78"/>
</g>
<g id="clust4" class="cluster">
<title>cluster_BlogHomeModule_imports</title>
<polygon fill="none" stroke="#000000" points="16,-78 16,-130 708,-130 708,-78 16,-78"/>
</g>
<!-- ...fromContainers.containers -->
<g id="node1" class="node">
<title>...fromContainers.containers</title>
<polygon fill="#ffffb3" stroke="#000000" points="899.8946,-122 724.1054,-122 724.1054,-86 899.8946,-86 899.8946,-122"/>
<text text-anchor="middle" x="812" y="-99.8" font-family="Times,serif" font-size="14.00" fill="#000000">...fromContainers.containers</text>
</g>
<!-- BlogHomeModule -->
<g id="node2" class="node">
<title>BlogHomeModule</title>
<polygon fill="#8dd3c7" stroke="#000000" points="410.4888,-187 407.4888,-191 386.4888,-191 383.4888,-187 289.5112,-187 289.5112,-151 410.4888,-151 410.4888,-187"/>
<text text-anchor="middle" x="350" y="-164.8" font-family="Times,serif" font-size="14.00" fill="#000000">BlogHomeModule</text>
</g>
<!-- ...fromContainers.containers&#45;&gt;BlogHomeModule -->
<g id="edge1" class="edge">
<title>...fromContainers.containers&#45;&gt;BlogHomeModule</title>
<path fill="none" stroke="#000000" d="M812,-122.2921C812,-144.2057 812,-178 812,-178 812,-178 420.8735,-178 420.8735,-178"/>
<polygon fill="#000000" stroke="#000000" points="420.8735,-174.5001 410.8735,-178 420.8735,-181.5001 420.8735,-174.5001"/>
</g>
<!-- BlogHomeRoutingModule -->
<g id="node3" class="node">
<title>BlogHomeRoutingModule</title>
<polygon fill="#8dd3c7" stroke="#000000" points="700.1066,-122 697.1066,-126 676.1066,-126 673.1066,-122 533.8934,-122 533.8934,-86 700.1066,-86 700.1066,-122"/>
<text text-anchor="middle" x="617" y="-99.8" font-family="Times,serif" font-size="14.00" fill="#000000">BlogHomeRoutingModule</text>
</g>
<!-- BlogHomeRoutingModule&#45;&gt;BlogHomeModule -->
<g id="edge2" class="edge">
<title>BlogHomeRoutingModule&#45;&gt;BlogHomeModule</title>
<path fill="none" stroke="#000000" d="M617,-122.1061C617,-141.3391 617,-169 617,-169 617,-169 420.5864,-169 420.5864,-169"/>
<polygon fill="#000000" stroke="#000000" points="420.5865,-165.5001 410.5864,-169 420.5864,-172.5001 420.5865,-165.5001"/>
</g>
<!-- IconsModule -->
<g id="node4" class="node">
<title>IconsModule</title>
<polygon fill="#8dd3c7" stroke="#000000" points="515.8697,-122 512.8697,-126 491.8697,-126 488.8697,-122 426.1303,-122 426.1303,-86 515.8697,-86 515.8697,-122"/>
<text text-anchor="middle" x="471" y="-99.8" font-family="Times,serif" font-size="14.00" fill="#000000">IconsModule</text>
</g>
<!-- IconsModule&#45;&gt;BlogHomeModule -->
<g id="edge3" class="edge">
<title>IconsModule&#45;&gt;BlogHomeModule</title>
<path fill="none" stroke="#000000" d="M471,-122.027C471,-138.3976 471,-160 471,-160 471,-160 420.5,-160 420.5,-160"/>
<polygon fill="#000000" stroke="#000000" points="420.5,-156.5001 410.5,-160 420.5,-163.5001 420.5,-156.5001"/>
</g>
<!-- UiButtonsModule -->
<g id="node5" class="node">
<title>UiButtonsModule</title>
<polygon fill="#8dd3c7" stroke="#000000" points="408.6095,-122 405.6095,-126 384.6095,-126 381.6095,-122 291.3905,-122 291.3905,-86 408.6095,-86 408.6095,-122"/>
<text text-anchor="middle" x="350" y="-99.8" font-family="Times,serif" font-size="14.00" fill="#000000">UiButtonsModule</text>
</g>
<!-- UiButtonsModule&#45;&gt;BlogHomeModule -->
<g id="edge4" class="edge">
<title>UiButtonsModule&#45;&gt;BlogHomeModule</title>
<path fill="none" stroke="#000000" d="M330.4818,-122.1061C330.4818,-122.1061 330.4818,-140.991 330.4818,-140.991"/>
<polygon fill="#000000" stroke="#000000" points="326.9819,-140.9909 330.4818,-150.991 333.9819,-140.991 326.9819,-140.9909"/>
</g>
<!-- UiButtonsModule&#45;&gt;BlogHomeModule -->
<g id="edge5" class="edge">
<title>UiButtonsModule&#45;&gt;BlogHomeModule</title>
<path fill="none" stroke="#000000" d="M369.5182,-122.1061C369.5182,-122.1061 369.5182,-140.991 369.5182,-140.991"/>
<polygon fill="#000000" stroke="#000000" points="366.0183,-140.9909 369.5182,-150.991 373.0183,-140.991 366.0183,-140.9909"/>
</g>
<!-- UiLoaderModule -->
<g id="node6" class="node">
<title>UiLoaderModule</title>
<polygon fill="#8dd3c7" stroke="#000000" points="273.6896,-122 270.6896,-126 249.6896,-126 246.6896,-122 160.3104,-122 160.3104,-86 273.6896,-86 273.6896,-122"/>
<text text-anchor="middle" x="217" y="-99.8" font-family="Times,serif" font-size="14.00" fill="#000000">UiLoaderModule</text>
</g>
<!-- UiLoaderModule&#45;&gt;BlogHomeModule -->
<g id="edge6" class="edge">
<title>UiLoaderModule&#45;&gt;BlogHomeModule</title>
<path fill="none" stroke="#000000" d="M217,-122.0225C217,-139.3734 217,-163 217,-163 217,-163 279.338,-163 279.338,-163"/>
<polygon fill="#000000" stroke="#000000" points="279.3381,-166.5001 289.338,-163 279.338,-159.5001 279.3381,-166.5001"/>
</g>
<!-- UiUtilitiesModule -->
<g id="node7" class="node">
<title>UiUtilitiesModule</title>
<polygon fill="#8dd3c7" stroke="#000000" points="142.1569,-122 139.1569,-126 118.1569,-126 115.1569,-122 23.8431,-122 23.8431,-86 142.1569,-86 142.1569,-122"/>
<text text-anchor="middle" x="83" y="-99.8" font-family="Times,serif" font-size="14.00" fill="#000000">UiUtilitiesModule</text>
</g>
<!-- UiUtilitiesModule&#45;&gt;BlogHomeModule -->
<g id="edge7" class="edge">
<title>UiUtilitiesModule&#45;&gt;BlogHomeModule</title>
<path fill="none" stroke="#000000" d="M83,-122.2843C83,-143.3211 83,-175 83,-175 83,-175 279.4136,-175 279.4136,-175"/>
<polygon fill="#000000" stroke="#000000" points="279.4136,-178.5001 289.4136,-175 279.4135,-171.5001 279.4136,-178.5001"/>
</g>
</g>
</svg>
