<?xml version="1.0" encoding="UTF-8" standalone="no"?>
<!DOCTYPE svg PUBLIC "-//W3C//DTD SVG 1.1//EN"
 "http://www.w3.org/Graphics/SVG/1.1/DTD/svg11.dtd">
<!-- Generated by graphviz version 2.40.1 (20161225.0304)
 -->
<!-- Title: dependencies Pages: 1 -->
<svg width="504pt" height="211pt"
 viewBox="0.00 0.00 504.00 211.00" xmlns="http://www.w3.org/2000/svg" xmlns:xlink="http://www.w3.org/1999/xlink">
<g id="graph0" class="graph" transform="scale(1 1) rotate(0) translate(4 207)">
<title>dependencies</title>
<polygon fill="#ffffff" stroke="transparent" points="-4,4 -4,-207 500,-207 500,4 -4,4"/>
<text text-anchor="start" x="227.0091" y="-42.4" font-family="sans-serif" font-weight="bold" font-size="14.00" fill="#000000">Legend</text>
<polygon fill="#ffffb3" stroke="transparent" points="14,-10 14,-30 34,-30 34,-10 14,-10"/>
<text text-anchor="start" x="37.629" y="-15.4" font-family="sans-serif" font-size="14.00" fill="#000000"> &#160;Declarations</text>
<polygon fill="#8dd3c7" stroke="transparent" points="127,-10 127,-30 147,-30 147,-10 127,-10"/>
<text text-anchor="start" x="150.7251" y="-15.4" font-family="sans-serif" font-size="14.00" fill="#000000"> &#160;Module</text>
<polygon fill="#80b1d3" stroke="transparent" points="213,-10 213,-30 233,-30 233,-10 213,-10"/>
<text text-anchor="start" x="236.7812" y="-15.4" font-family="sans-serif" font-size="14.00" fill="#000000"> &#160;Bootstrap</text>
<polygon fill="#fdb462" stroke="transparent" points="310,-10 310,-30 330,-30 330,-10 310,-10"/>
<text text-anchor="start" x="333.6732" y="-15.4" font-family="sans-serif" font-size="14.00" fill="#000000"> &#160;Providers</text>
<polygon fill="#fb8072" stroke="transparent" points="406,-10 406,-30 426,-30 426,-10 406,-10"/>
<text text-anchor="start" x="429.7258" y="-15.4" font-family="sans-serif" font-size="14.00" fill="#000000"> &#160;Exports</text>
<g id="clust1" class="cluster">
<title>cluster_AdminDashboardModule</title>
<polygon fill="none" stroke="#000000" stroke-dasharray="1,5" points="30,-70 30,-195 466,-195 466,-70 30,-70"/>
</g>
<g id="clust2" class="cluster">
<title>cluster_AdminDashboardModule_declarations</title>
<polygon fill="none" stroke="#000000" points="266,-78 266,-130 458,-130 458,-78 266,-78"/>
</g>
<g id="clust4" class="cluster">
<title>cluster_AdminDashboardModule_imports</title>
<polygon fill="none" stroke="#000000" points="38,-78 38,-130 258,-130 258,-78 38,-78"/>
</g>
<!-- ...fromContainers.containers -->
<g id="node1" class="node">
<title>...fromContainers.containers</title>
<polygon fill="#ffffb3" stroke="#000000" points="449.8946,-122 274.1054,-122 274.1054,-86 449.8946,-86 449.8946,-122"/>
<text text-anchor="middle" x="362" y="-99.8" font-family="Times,serif" font-size="14.00" fill="#000000">...fromContainers.containers</text>
</g>
<!-- AdminDashboardModule -->
<g id="node2" class="node">
<title>AdminDashboardModule</title>
<polygon fill="#8dd3c7" stroke="#000000" points="334.5786,-187 331.5786,-191 310.5786,-191 307.5786,-187 175.4214,-187 175.4214,-151 334.5786,-151 334.5786,-187"/>
<text text-anchor="middle" x="255" y="-164.8" font-family="Times,serif" font-size="14.00" fill="#000000">AdminDashboardModule</text>
</g>
<!-- ...fromContainers.containers&#45;&gt;AdminDashboardModule -->
<g id="edge1" class="edge">
<title>...fromContainers.containers&#45;&gt;AdminDashboardModule</title>
<path fill="none" stroke="#000000" d="M304.4211,-122.1061C304.4211,-122.1061 304.4211,-140.991 304.4211,-140.991"/>
<polygon fill="#000000" stroke="#000000" points="300.9212,-140.9909 304.4211,-150.991 307.9212,-140.991 300.9212,-140.9909"/>
</g>
<!-- AdminDashboardRoutingModule -->
<g id="node3" class="node">
<title>AdminDashboardRoutingModule</title>
<polygon fill="#8dd3c7" stroke="#000000" points="250.1965,-122 247.1965,-126 226.1965,-126 223.1965,-122 45.8035,-122 45.8035,-86 250.1965,-86 250.1965,-122"/>
<text text-anchor="middle" x="148" y="-99.8" font-family="Times,serif" font-size="14.00" fill="#000000">AdminDashboardRoutingModule</text>
</g>
<!-- AdminDashboardRoutingModule&#45;&gt;AdminDashboardModule -->
<g id="edge2" class="edge">
<title>AdminDashboardRoutingModule&#45;&gt;AdminDashboardModule</title>
<path fill="none" stroke="#000000" d="M212.7795,-122.1061C212.7795,-122.1061 212.7795,-140.991 212.7795,-140.991"/>
<polygon fill="#000000" stroke="#000000" points="209.2795,-140.9909 212.7795,-150.991 216.2795,-140.991 209.2795,-140.9909"/>
</g>
</g>
</svg>
